<svg width="75" height="75" viewBox="0 0 75 75" fill="none" xmlns="http://www.w3.org/2000/svg">
<rect width="75" height="75" rx="5" fill="#AF8900" fill-opacity="0.1"/>
<path d="M21.9091 25.5565L19.7273 22.1696L22.2727 19.6739L25.7273 21.813C26.4545 21.4565 27.1818 21.1 27.9091 20.9217L28.8182 17H32.4545L33.3636 20.9217C34.0909 21.1 34.8182 21.4565 35.5455 21.813L39 19.6739L41.5455 22.1696L39.3636 25.5565C39.7273 26.2696 40.0909 26.9826 40.2727 27.6957L44.2727 28.587V32.1522L40.2727 33.0435C40.0909 33.7565 39.7273 34.4696 39.3636 35.1826L41.5455 38.5696L39 41.0652L35.5455 38.9261C34.8182 39.2826 34.0909 39.6391 33.3636 39.8174L32.4545 43.7391H28.8182L27.9091 39.8174C27.1818 39.6391 26.4545 39.2826 25.7273 38.9261L22.2727 41.0652L19.7273 38.5696L21.9091 35.1826C21.5455 34.4696 21.1818 33.7565 21 33.0435L17 32.1522V28.587L21 27.6957C21.1818 26.9826 21.5455 26.2696 21.9091 25.5565Z" stroke="#945E59" stroke-width="1.2" stroke-miterlimit="10" stroke-linecap="round" stroke-linejoin="round"/>
<path d="M30.6364 34.8261C33.1467 34.8261 35.1818 32.8308 35.1818 30.3696C35.1818 27.9083 33.1467 25.913 30.6364 25.913C28.126 25.913 26.0909 27.9083 26.0909 30.3696C26.0909 32.8308 28.126 34.8261 30.6364 34.8261Z" stroke="#945E59" stroke-width="1.2" stroke-miterlimit="10" stroke-linecap="round" stroke-linejoin="round"/>
<path d="M42.0909 45.8783L40.6364 43.5609L42.2727 41.9565L44.6364 43.3826C45 43.2043 45.5455 43.0261 46.0909 42.8478L46.8182 40.3522H49.1818L49.9091 42.8478C50.4545 43.0261 50.8182 43.2043 51.3636 43.3826L53.7273 41.9565L55.3636 43.5609L53.9091 45.8783C54.0909 46.2348 54.2727 46.7696 54.4545 47.3043L57 48.0174V50.3348L54.4545 51.0478C54.2727 51.5826 54.0909 51.9391 53.9091 52.4739L55.3636 54.7913L53.7273 56.3957L51.3636 54.9696C51 55.1478 50.4545 55.3261 49.9091 55.5043L49.1818 58H46.8182L46.0909 55.5043C45.5455 55.3261 45.1818 55.1478 44.6364 54.9696L42.2727 56.3957L40.6364 54.7913L42.0909 52.4739C41.9091 52.1174 41.7273 51.5826 41.5455 51.0478L39 50.3348V48.0174L41.5455 47.3043C41.5455 46.7696 41.7273 46.2348 42.0909 45.8783Z" stroke="#945E59" stroke-width="1.2" stroke-miterlimit="10" stroke-linecap="round" stroke-linejoin="round"/>
<path d="M47.9091 52.1174C49.6162 52.1174 51 50.7606 51 49.087C51 47.4133 49.6162 46.0565 47.9091 46.0565C46.202 46.0565 44.8182 47.4133 44.8182 49.087C44.8182 50.7606 46.202 52.1174 47.9091 52.1174Z" stroke="#945E59" stroke-width="1.2" stroke-miterlimit="10" stroke-linecap="round" stroke-linejoin="round"/>
</svg>
