<svg width="75" height="75" viewBox="0 0 75 75" fill="none" xmlns="http://www.w3.org/2000/svg">
<rect width="75" height="75" rx="5" fill="#00AF31" fill-opacity="0.1"/>
<path d="M26.361 42.4166C26.361 42.4166 22.3983 39.1822 21.6183 37.8283C19.1783 33.6088 22.1455 26.8338 27.4183 25.7061" stroke="#6EA07D" stroke-width="1.2" stroke-linecap="round" stroke-linejoin="round"/>
<path d="M39.5052 41.8833L46.6664 45.7839" stroke="#6EA07D" stroke-width="1.2" stroke-linecap="round" stroke-linejoin="round"/>
<path d="M36.8164 44.55L44.0386 48.16" stroke="#6EA07D" stroke-width="1.2" stroke-linecap="round" stroke-linejoin="round"/>
<path d="M50.3222 43.4L47.4888 40.9789L42.8894 38.5706" stroke="#6EA07D" stroke-width="1.2" stroke-linecap="round" stroke-linejoin="round"/>
<path d="M38.8276 49.2722C43.5909 52.3089 44.822 49.1083 44.0425 48.1644C45.5614 49.0672 47.492 47.8772 46.6709 45.785C48.8064 46.8111 50.572 45.2106 50.3259 43.4056C52.1737 43.7339 53.3231 42.2156 52.7898 40.41C56.5237 37.8628 55.5903 29.8378 52.7348 26.3211C47.5753 25.5106 46.6237 25.0089 41.0792 24.1306L33.5625 23.7867C33.0242 23.6454 32.4523 23.7116 31.9605 23.9723C31.4687 24.233 31.0928 24.669 30.9075 25.1939C30.4898 26.7583 29.9759 27.9556 28.9081 29.8483C28.7133 30.3248 28.7131 30.8586 28.9076 31.3352C29.102 31.8117 29.4756 32.1931 29.9481 32.3972C31.0081 32.6622 31.4925 32.1828 32.4259 31.4606C33.6453 30.2928 33.8859 29.7961 34.5398 28.9189L42.1175 32.3656L49.1842 36.3456C50.5809 37.2889 51.9687 39.5922 52.8009 40.4128" stroke="#6EA07D" stroke-width="1.2" stroke-linecap="round" stroke-linejoin="round"/>
<path d="M35.5053 48.0833C36.1214 47.2627 36.9864 47.1316 37.8075 47.5833C38.5881 48.0344 39.1625 48.8955 38.6286 49.8405L37.6431 51.5627C37.027 52.3839 35.8775 52.5066 35.0975 51.9322C34.412 51.4189 34.2131 50.5333 34.4997 49.8011L35.5053 48.0822V48.0833Z" stroke="#6EA07D" stroke-width="1.2" stroke-linecap="round" stroke-linejoin="round"/>
<path d="M32.3553 46.3222C32.9714 45.5016 33.8364 45.3705 34.6575 45.8222C35.4381 46.2733 36.0125 47.1344 35.4786 48.0794L34.4931 49.8016C33.877 50.6227 32.7275 50.7455 31.9475 50.1711C31.262 49.6577 31.0631 48.7722 31.3497 48.04L32.3553 46.3211V46.3222Z" stroke="#6EA07D" stroke-width="1.2" stroke-linecap="round" stroke-linejoin="round"/>
<path d="M29.2108 44.5667C29.8269 43.7461 30.6919 43.615 31.5131 44.0667C32.2936 44.5178 32.8681 45.3789 32.3342 46.3239L31.3486 48.0461C30.7325 48.8673 29.5831 48.99 28.8031 48.4156C28.1175 47.9023 27.9186 47.0167 28.2053 46.2845L29.2108 44.5656V44.5667Z" stroke="#6EA07D" stroke-width="1.2" stroke-linecap="round" stroke-linejoin="round"/>
<path d="M26.0724 42.8056C26.6885 41.985 27.5535 41.8539 28.3746 42.3056C29.1551 42.7567 29.7296 43.6178 29.1957 44.5628L28.2101 46.285C27.594 47.1061 26.4446 47.2289 25.6646 46.6545C24.979 46.1411 24.7801 45.2556 25.0668 44.5234L26.0724 42.8045V42.8056Z" stroke="#6EA07D" stroke-width="1.2" stroke-linecap="round" stroke-linejoin="round"/>
</svg>
