<svg width="75" height="75" viewBox="0 0 75 75" fill="none" xmlns="http://www.w3.org/2000/svg"><rect width="75" height="75" rx="5" fill="#AF8900" fill-opacity=".1"/><path d="M21.91 25.556l-2.183-3.386 2.546-2.496 3.454 2.139c.727-.357 1.455-.713 2.182-.891L28.82 17h3.636l.909 3.922c.727.178 1.454.534 2.181.891L39 19.673l2.545 2.497-2.181 3.386c.363.714.727 1.427.909 2.14l4 .891v3.565l-4 .892c-.182.713-.546 1.426-.91 2.139l2.182 3.387L39 41.065l-3.455-2.139c-.727.357-1.454.713-2.181.891l-.91 3.922h-3.636l-.909-3.922c-.727-.178-1.454-.534-2.182-.89l-3.454 2.138-2.546-2.495 2.182-3.387c-.363-.713-.727-1.426-.909-2.14l-4-.89v-3.566l4-.891c.182-.713.546-1.426.91-2.14z" stroke="#945E59" stroke-width="1.2" stroke-miterlimit="10" stroke-linecap="round" stroke-linejoin="round"/><path d="M30.636 34.826c2.51 0 4.546-1.995 4.546-4.456 0-2.462-2.035-4.457-4.546-4.457-2.51 0-4.545 1.995-4.545 4.457 0 2.46 2.035 4.456 4.545 4.456zM42.09 45.878l-1.454-2.317 1.637-1.605 2.363 1.427c.364-.179.91-.357 1.455-.535l.727-2.496h2.364l.727 2.496c.546.178.91.356 1.455.535l2.363-1.427 1.637 1.605-1.455 2.317c.182.357.364.892.546 1.426l2.545.713v2.318l-2.545.713c-.182.535-.364.891-.546 1.426l1.455 2.317-1.637 1.605-2.363-1.426c-.364.178-.91.356-1.455.534L49.182 58h-2.364l-.727-2.496c-.546-.178-.91-.356-1.455-.534l-2.363 1.426-1.637-1.605 1.455-2.317c-.182-.357-.364-.891-.546-1.426L39 50.335v-2.318l2.545-.713c0-.534.182-1.07.546-1.426z" stroke="#945E59" stroke-width="1.2" stroke-miterlimit="10" stroke-linecap="round" stroke-linejoin="round"/><path d="M47.91 52.117c1.706 0 3.09-1.356 3.09-3.03 0-1.674-1.384-3.03-3.09-3.03-1.708 0-3.092 1.356-3.092 3.03 0 1.674 1.384 3.03 3.091 3.03z" stroke="#945E59" stroke-width="1.2" stroke-miterlimit="10" stroke-linecap="round" stroke-linejoin="round"/></svg>