<svg width="75" height="75" viewBox="0 0 75 75" fill="none" xmlns="http://www.w3.org/2000/svg"><rect width="75" height="75" rx="5" fill="#00AF31" fill-opacity=".1"/><path d="M26.361 42.417s-3.963-3.235-4.743-4.589c-2.44-4.22.527-10.994 5.8-12.122m12.087 16.177l7.161 3.9m-9.85-1.233l7.223 3.61m6.283-4.76l-2.833-2.421-4.6-2.408" stroke="#6EA07D" stroke-width="1.2" stroke-linecap="round" stroke-linejoin="round"/><path d="M38.828 49.272c4.763 3.037 5.994-.164 5.214-1.108 1.52.903 3.45-.287 2.629-2.379 2.135 1.026 3.901-.574 3.655-2.38 1.848.329 2.997-1.19 2.464-2.995 3.734-2.547 2.8-10.572-.055-14.089-5.16-.81-6.111-1.312-11.656-2.19l-7.517-.344a2.218 2.218 0 0 0-2.654 1.407c-.418 1.564-.932 2.762-2 4.654a1.966 1.966 0 0 0 1.04 2.55c1.06.264 1.544-.215 2.478-.937 1.22-1.168 1.46-1.665 2.114-2.542l7.578 3.447 7.066 3.98c1.397.943 2.785 3.246 3.617 4.067" stroke="#6EA07D" stroke-width="1.2" stroke-linecap="round" stroke-linejoin="round"/><path d="M35.505 48.083c.616-.82 1.481-.951 2.302-.5.781.451 1.355 1.313.822 2.258l-.986 1.722c-.616.82-1.766.944-2.546.37A1.827 1.827 0 0 1 34.5 49.8l1.005-1.719v.001zm-3.15-1.761c.616-.82 1.481-.952 2.303-.5.78.451 1.355 1.312.82 2.257l-.985 1.723c-.616.82-1.766.944-2.546.37a1.827 1.827 0 0 1-.597-2.132l1.005-1.719v.001z" stroke="#6EA07D" stroke-width="1.2" stroke-linecap="round" stroke-linejoin="round"/><path d="M29.21 44.567c.617-.82 1.482-.952 2.303-.5.78.45 1.355 1.312.821 2.257l-.985 1.722c-.616.821-1.766.944-2.546.37a1.827 1.827 0 0 1-.598-2.131l1.006-1.72v.002z" stroke="#6EA07D" stroke-width="1.2" stroke-linecap="round" stroke-linejoin="round"/><path d="M26.072 42.806c.617-.821 1.482-.952 2.303-.5.78.45 1.355 1.312.82 2.257l-.985 1.722c-.616.821-1.765.944-2.545.37a1.827 1.827 0 0 1-.598-2.132l1.005-1.719v.002z" stroke="#6EA07D" stroke-width="1.2" stroke-linecap="round" stroke-linejoin="round"/></svg>