<svg width="1249" height="308" viewBox="0 0 1249 308" fill="none" xmlns="http://www.w3.org/2000/svg"><path d="M858.391 424.856l-.949 2.088-1.044 2.184-1.14 2.088-1.234 2.184-1.424 2.088-1.424 2.184-1.519 2.088-1.709 2.089-1.803 2.089-1.899 2.088-1.994 2.089-2.183 1.993-2.279 2.089-2.468 1.993-2.753 1.899-3.038 1.994-3.323 1.898-3.607 1.804-3.987 1.709-4.272 1.709-4.747 1.519-5.032 1.424-5.601 1.234-5.981 1.044-6.36.95-6.835.664-7.215.38-7.69.285-7.88-.095-8.259-.285-8.544-.57-8.734-.854-8.924-1.139-9.018-1.329-9.209-1.519-9.304-1.804-9.303-1.994-9.399-2.278-9.493-2.374-9.494-2.658-9.493-2.753-9.398-2.848-9.304-2.943-9.304-3.133-9.208-3.037-9.019-3.038-9.114-3.038-8.734-2.943-8.828-2.848-17.658-5.506-8.829-2.564-9.114-2.468-9.303-2.468-9.494-2.469-9.968-2.468-10.253-2.563-10.822-2.563-11.392-2.753-12.057-3.038-12.626-3.228-13.481-3.608-14.24-4.082-15.095-4.557-15.949-5.221-16.803-5.981-17.847-7.025-18.703-7.879-19.461-8.734-20.411-9.968-21.075-11.013-21.835-12.056-22.5-13.101-23.069-14.051-23.828-14.809-24.398-15.759-25.063-16.614-25.727-17.468-26.392-18.322-27.15-19.272-27.816-20.221-28.576-21.265-29.334-22.31-30-23.353-30.853-24.493-31.518-25.633L-150 23.57M856.113 420.394l-.95 1.994-1.044 2.088-1.044 1.994-1.234 2.088-1.234 1.994-1.424 1.993-1.519 2.089-1.614 1.994-1.709 1.993-1.804 1.994-1.993 1.899-2.089 1.993-2.373 1.899-2.564 1.899-2.943 1.803-3.132 1.899-3.513 1.709-3.892 1.709-4.272 1.613-4.747 1.424-5.032 1.33-5.506 1.234-5.981 1.044-6.55.759-6.835.57-7.215.38-7.785.095-7.974-.19-8.45-.475-8.544-.664-8.923-1.045-9.019-1.234-9.209-1.519-9.208-1.803-9.304-1.994-9.398-2.278-9.399-2.374-9.398-2.753-9.399-2.848-9.398-3.038-9.399-3.133-18.227-6.645-9.019-3.418-8.829-3.417-17.278-6.836-8.259-3.132-8.165-3.038-8.259-3.038-8.069-2.848-8.165-2.753-8.259-2.564-8.449-2.563-8.639-2.373-9.019-2.374-9.303-2.373-9.779-2.373-10.347-2.469-10.918-2.563-11.582-2.848-12.246-3.038-13.196-3.512-13.955-3.893-14.905-4.556-15.854-5.222-16.804-6.17-17.847-7.121-18.702-7.974-19.557-9.209-20.505-10.347-21.171-11.393-21.93-12.531-22.689-13.67-23.259-14.525-23.828-15.475-24.588-16.328-25.253-17.183-25.917-18.133-26.676-19.082-27.341-20.031-28.1-20.98-28.86-22.025-29.525-23.069-30.38-24.208-31.233-25.443-31.898-26.486m981.525 396.73l-.949 1.899-.949 1.993-1.045 1.899-1.139 1.994-1.234 1.898-1.329 1.899-1.424 1.899-3.228 3.797-1.804 1.899-1.993 1.898-2.184 1.804-2.468 1.804-2.753 1.804-3.038 1.803-3.513 1.709-3.797 1.614-4.272 1.519-4.652 1.424-5.126 1.329-5.506 1.044-5.981.95-6.456.759-7.025.57-7.31.285h-7.69l-8.164-.285-8.544-.57-8.734-.854-9.019-1.139-9.113-1.425-9.304-1.613-9.303-1.994-9.494-2.183-9.398-2.469-9.399-2.658-9.398-2.848-9.399-3.133-9.303-3.228-9.304-3.417-9.208-3.608-8.924-3.607-8.829-3.798-8.734-3.797-16.709-7.5-8.164-3.702-7.785-3.418-7.594-3.322-7.595-3.228-7.5-3.038-7.405-2.848-7.499-2.753-7.69-2.563-7.785-2.374-8.069-2.373-8.354-2.279-8.734-2.183-9.304-2.184-9.778-2.278-10.538-2.468-11.202-2.564-11.962-2.942-12.911-3.323-13.765-3.893-14.715-4.461-15.949-5.412-16.803-6.36-17.848-7.215-18.797-8.354-19.746-9.589-20.601-10.632-21.265-11.962-22.12-13.101-22.784-14.145-23.354-15-24.113-16.139-24.778-16.993-25.348-17.848-26.201-18.797-26.867-19.841-27.626-20.695-28.385-21.835-29.145-22.88-29.999-23.923-30.664-25.157-31.613-26.297M851.556 411.66l-.855 1.899-.854 1.803-1.044 1.899-2.279 3.608-1.329 1.898-1.329 1.804-1.614 1.804-1.614 1.709-1.708 1.803-2.089 1.804-2.278 1.804-2.564 1.709-3.037 1.708-3.323 1.614-3.703 1.614-4.177 1.519-4.651 1.329-5.127 1.234-5.601 1.14-6.076.854-6.36.759-7.026.475-7.499.19h-7.785l-8.259-.38-8.639-.664-8.924-.95-9.209-1.234-9.303-1.519-9.399-1.803-9.493-2.089-9.589-2.373-9.493-2.659-9.493-2.848-9.494-3.037-9.303-3.323-9.304-3.418-9.209-3.607-9.113-3.893-9.019-3.987-8.639-3.987-8.544-3.987-8.449-4.177-8.165-4.177-7.879-3.988-7.785-3.987-7.215-3.797-7.12-3.513-13.86-6.74-6.74-2.943-6.836-2.848-6.835-2.658-7.025-2.564-7.12-2.373-7.5-2.183-7.785-2.089-8.259-2.089-8.829-1.993-9.398-2.184-10.063-2.183-10.918-2.468-11.677-2.848-12.721-3.228-13.67-3.798-14.81-4.746-15.759-5.507-16.898-6.36-17.943-7.595-18.987-8.829-19.841-9.873-20.696-11.202-21.455-12.436-22.309-13.576-22.88-14.525-23.638-15.664-24.303-16.709-24.873-17.657-25.727-18.607-26.392-19.557-27.151-20.506-27.91-21.55L7.115 85.561l-29.524-23.734-30.38-24.872-31.138-26.107m933.298 396.54l-.854 1.804-.854 1.708-.95 1.804-1.044 1.709-1.139 1.709-1.234 1.804-1.329 1.708-1.519 1.709-1.614 1.709-1.804 1.709-2.184 1.614-2.468 1.709-2.753 1.708-3.228 1.519-3.702 1.614-4.082 1.424-4.652 1.329-5.032 1.234-5.601 1.14-6.075.854-6.551.665-7.025.474-7.5.19-8.069-.095-8.26-.38-8.734-.664-9.113-1.044-9.304-1.329-9.588-1.614-9.588-1.899-9.684-2.278-9.683-2.469-9.683-2.753-9.589-3.038-9.588-3.227-9.399-3.513-9.208-3.608-9.209-3.797-9.018-3.987-8.924-4.177-8.734-4.367-8.449-4.272-8.26-4.367-8.069-4.462-7.88-4.462-7.405-4.272-7.404-4.367-6.836-3.987-6.55-3.798-6.456-3.702-6.36-3.418-6.076-3.227-6.171-3.038-6.076-2.753-6.265-2.659-6.456-2.373-6.55-2.278-6.93-2.089-7.31-1.899-7.785-1.898-8.354-1.899-9.019-1.899-9.683-2.088-10.633-2.374-11.582-2.658-12.531-3.133-13.671-4.082-14.809-4.746-15.854-5.602-16.994-6.74-18.037-7.974-19.082-9.114-20.031-10.443-20.886-11.772-21.739-12.911-22.405-14.05-23.164-15.095-23.828-16.328-24.398-17.373-25.253-18.322-25.917-19.367-26.676-20.221-27.436-21.36-28.196-22.405-29.145-23.448-29.904-24.683-30.759-25.823m909.66 396.446l-.76 1.614-.854 1.708-.949 1.614-.95 1.709-2.278 3.228-1.329 1.614-1.519 1.709-1.614 1.614-1.899 1.613-2.278 1.614-2.753 1.614-3.038 1.519-3.513 1.519-4.082 1.519-4.462 1.329-5.031 1.234-5.601 1.045-6.076.854-6.646.664-7.12.475-7.499.19-8.07-.095-8.544-.475-8.829-.664-9.208-1.044-9.494-1.329-9.778-1.709-9.778-1.994-9.968-2.373-9.874-2.564-9.873-2.942-9.683-3.133-9.683-3.323-9.494-3.608-9.303-3.797-9.114-3.987-9.019-4.177-8.829-4.367-8.639-4.462-8.544-4.557-8.164-4.652-7.974-4.651-7.785-4.747-14.525-9.304-7.025-4.652-6.361-4.177-6.075-4.082-5.981-3.892-5.791-3.703-5.601-3.417-5.507-3.228-5.506-2.943-5.506-2.753-5.601-2.563-5.886-2.279-6.076-2.088-6.36-1.899-6.836-1.709-7.31-1.803-7.974-1.614-8.734-1.804-19.936-4.177-11.392-2.658-12.627-3.418-13.67-4.082-14.81-4.842-15.949-5.981-17.183-7.215-18.227-8.164-19.272-9.683-20.221-11.013-21.075-12.246-21.93-13.291-22.594-14.62-23.354-15.854-24.114-16.993-24.682-18.038-25.443-19.081-26.202-20.031-26.961-21.076-27.816-22.215-28.67-23.258-29.43-24.398L-41.3 2.683m886.305 396.351l-.759 1.614-.76 1.519-.854 1.613-.949 1.519-1.045 1.614-1.139 1.519-1.234 1.519-1.519 1.519-1.804 1.614-1.993 1.519-2.563 1.614-2.943 1.519-3.323 1.424-3.892 1.424-4.462 1.329-4.937 1.234-5.506 1.139-6.076.855-6.645.664-7.215.475-7.595.19-8.069-.095-8.639-.38-9.019-.665-9.304-1.044-9.683-1.329-9.968-1.804-10.063-1.993-10.063-2.374-10.158-2.753-10.063-2.943-9.968-3.227-9.778-3.513-9.589-3.702-9.398-3.988-9.209-4.082-8.924-4.272-8.829-4.462-8.544-4.652-8.449-4.746-8.259-4.842-7.785-4.842-7.689-4.936-7.405-5.032-7.12-4.936-6.741-4.842-6.645-4.842-11.582-8.828-5.506-4.178-5.317-3.892-5.031-3.607-5.032-3.418-4.841-3.133-4.937-2.943-4.936-2.563-5.032-2.373-5.316-2.184-5.601-1.898-5.981-1.804-6.361-1.614-7.025-1.519-7.69-1.519-8.449-1.709-9.303-1.899-10.348-2.183-11.487-2.848-12.531-3.513-13.766-4.177-14.905-5.126-16.233-6.456-17.278-7.405-18.418-8.828-19.461-10.253-20.506-11.487-21.265-12.627-22.12-13.955-22.879-15.284-23.639-16.519-24.303-17.658-24.967-18.797-25.728-19.841-26.581-20.885-27.341-21.93-28.1-23.07-29.05-24.207-30-25.348m863.332 396.256l-.76 1.424-1.519 3.037-.949 1.424-1.044 1.519-1.044 1.424-1.235 1.424-1.519 1.519-1.898 1.519-2.184 1.424-2.753 1.519-3.228 1.519-3.702 1.329-4.272 1.329-4.842 1.235-5.411 1.139-6.076.949-6.645.665-7.12.569-7.785.19h-8.164l-8.544-.38-9.209-.664-9.588-.95-9.778-1.424-10.063-1.708-10.348-2.089-10.348-2.373-10.443-2.753-10.253-3.038-10.253-3.323-9.968-3.607-9.683-3.798-9.493-3.987-9.304-4.272-8.924-4.367-8.734-4.557-8.544-4.652-8.354-4.936-8.069-4.937-7.975-5.126-7.5-5.127-7.31-5.126-7.12-5.222-6.74-5.221-6.361-5.031-6.265-5.032-5.601-4.747-5.317-4.462-5.031-4.367-4.842-4.177-4.652-3.892-4.367-3.513-4.367-3.322-4.367-3.133-4.367-2.753-4.367-2.468-4.556-2.279-4.842-1.993-5.127-1.709-5.506-1.614-6.076-1.424-6.74-1.424-7.405-1.424-8.259-1.519-9.303-1.899-10.348-2.373-11.487-2.943-12.722-3.608-13.86-4.557-15.189-5.696-16.424-6.645-17.563-8.069L320.209 231l-19.651-10.727-20.696-11.867-21.645-13.386-22.404-14.62-23.069-16.044-23.924-17.183-24.588-18.417-25.252-19.651-26.012-20.696-26.867-21.74-27.72-22.784-28.67-24.019L.185-5.29m840.642 396.16l-.664 1.424-.76 1.424-.759 1.329-.855 1.424-.949 1.33-1.044 1.424-1.329 1.329-1.614 1.424-1.994 1.519-2.468 1.424-2.943 1.424-3.608 1.424-4.082 1.329-4.746 1.234-5.317 1.044-5.886 1.044-6.55.76-7.12.569-7.785.285h-8.259l-8.734-.285-9.114-.569-9.683-.949-10.063-1.33-10.253-1.708-10.443-1.994-10.632-2.373-10.633-2.753-10.538-3.133-10.442-3.323-10.348-3.702-9.968-3.893-9.494-4.082-9.398-4.272-9.019-4.462-8.734-4.652-8.449-4.746-8.259-4.937-7.975-5.031-7.784-5.222-7.595-5.316-7.215-5.221-6.93-5.412-6.741-5.411-6.455-5.316-6.076-5.222-5.791-5.316-5.316-4.937-9.589-9.208-4.367-4.367-4.177-3.987-3.987-3.798-3.892-3.512-3.798-3.323-3.797-2.943-3.797-2.563-3.893-2.374-4.177-2.088-4.367-1.804-4.746-1.614-5.222-1.329-5.791-1.329-6.55-1.329-7.31-1.424-8.26-1.519-9.303-2.088-10.443-2.564-11.582-3.038-12.911-3.987-14.145-5.031-15.379-5.886-16.614-7.31-17.847-8.734-18.987-9.873-20.031-11.203-20.981-12.626-21.835-14.05-22.689-15.379-23.449-16.709-24.208-18.037-24.873-19.272-25.537-20.506-26.392-21.455-27.246-22.69-28.195-23.733L20.502-9.183M838.74 386.882l-1.329 2.658-.76 1.234-1.709 2.659-1.044 1.234-1.329 1.329-1.804 1.424-2.183 1.424-2.753 1.329-3.323 1.424-3.892 1.329-4.557 1.234-5.127 1.139-5.791 1.045-6.455.759-7.12.665-7.69.379-8.259.095-8.829-.19-9.304-.474-9.588-.95-10.158-1.234-10.443-1.519-10.632-1.993-10.728-2.374-10.917-2.753-10.823-3.038-10.727-3.322-10.443-3.703-10.253-3.987-9.873-4.177-9.399-4.272-9.113-4.557-8.829-4.652-8.354-4.841-8.165-4.937-7.974-5.126-7.595-5.222-7.5-5.316-7.215-5.506-6.835-5.412-6.551-5.506-6.455-5.506-6.076-5.506-5.696-5.411-5.506-5.412-4.842-5.126-4.557-4.842-4.272-4.746-4.082-4.557-3.797-4.177-3.608-3.988-3.417-3.702-3.418-3.418-3.228-3.132-3.322-2.849-3.323-2.468-3.513-2.183-3.702-1.899-4.082-1.614-4.462-1.424-5.032-1.329-5.601-1.234-6.455-1.329-7.215-1.329-8.354-1.804-9.494-2.278-10.538-2.659-11.771-3.417-13.196-4.462-14.335-5.316-15.759-6.646-16.899-7.974-18.132-9.114-19.272-10.443-20.316-11.961-21.36-13.291-22.12-14.81-23.069-16.139-23.733-17.563-24.493-18.892-25.063-20.22-26.012-21.266-26.771-22.5-27.721-23.543-28.67-24.778M836.65 382.895l-.569 1.234-1.329 2.468-.76 1.234-.949 1.235-1.045 1.234-1.519 1.234-1.993 1.329-2.468 1.424-3.038 1.329-3.608 1.329-4.367 1.234-4.936 1.14-5.601 1.139-6.361.854-6.93.665-7.69.474-8.259.19-8.829-.095-9.304-.379-9.778-.76-10.158-1.139-10.538-1.519-10.822-1.899-10.823-2.278-11.012-2.563-11.107-3.038-10.918-3.323-10.727-3.702-10.443-3.893-10.253-4.272-9.683-4.367-9.114-4.462-8.829-4.746-8.449-4.937-8.164-4.937-7.69-5.126-7.595-5.221-7.31-5.412-7.12-5.411-6.835-5.601-6.455-5.601-6.266-5.601-5.981-5.601-5.791-5.601-5.316-5.602-5.127-5.506-4.557-5.221-4.272-5.032-3.892-4.841-3.797-4.747-3.418-4.367-3.228-4.177-3.132-3.892-2.943-3.608-2.848-3.323-2.848-2.943-2.849-2.658-2.942-2.278-3.133-2.089-3.418-1.709-3.702-1.518-4.272-1.33-4.937-1.234-5.506-1.234-6.456-1.234-7.405-1.709-8.449-1.898-9.493-2.374-10.823-3.038-12.151-3.892-13.386-4.747-14.715-6.076-16.044-7.215-17.278-8.544-18.512-9.683-19.651-11.202-20.696-12.721-21.645-14.146-22.499-15.569-23.354-17.088-24.018-18.417-24.778-19.936-25.443-21.076-26.391-22.214L88.665 7.715 60.469-16.873m774.189 395.876l-1.14 2.278-.664 1.139-.76 1.139-.949 1.235-1.139 1.139-1.614 1.234-2.279 1.329-2.658 1.329-3.417 1.234-3.988 1.329-4.746 1.14-5.411 1.139-6.171.949-6.835.76-7.5.569-8.165.285-8.828.095-9.304-.38-9.873-.569-10.253-1.045-10.538-1.329-10.822-1.804-11.203-2.183-11.107-2.468-11.202-2.943-11.202-3.228-10.918-3.608-10.727-3.892-10.348-4.272-10.063-4.367-9.399-4.557-8.828-4.746-8.545-4.842-8.164-5.032-7.69-5.126-7.404-5.221-7.215-5.412-6.931-5.411-6.645-5.601-6.551-5.601-6.075-5.696-5.791-5.696-5.696-5.696-5.412-5.696-4.936-5.602-4.842-5.696-4.272-5.316-3.892-5.126-3.703-5.032-3.417-4.841-3.133-4.557-2.943-4.367-2.753-3.988-2.658-3.892-2.469-3.417-2.468-3.228-2.373-2.753-2.469-2.469-2.563-2.183-2.848-1.899-3.228-1.614-3.607-1.424-4.177-1.329-4.747-1.234-5.601-1.234-6.55-1.519-7.5-1.709-8.639-2.183-9.778-2.658-11.203-3.608-12.341-4.177-13.766-5.506-15.189-6.646-16.329-7.879-17.752-9.019-18.797-10.538-20.032-12.056-21.075-13.481-22.025-15-22.879-16.518-23.638-17.943-24.304-19.556-25.157-20.696-25.822-22.12-26.772-23.163-27.816-24.399M832.664 375.11l-.57 1.045-.569 1.139-.57 1.044-.759 1.139-1.045 1.045-1.234 1.139-1.804 1.234-2.468 1.234-3.038 1.329-3.702 1.234-4.462 1.234-5.221 1.14-5.886 1.044-6.646.854-7.31.665-8.069.38-8.639.189-9.304-.189-9.873-.475-10.348-.855-10.632-1.234-10.918-1.614-11.107-1.993-11.392-2.468-11.392-2.754-11.297-3.227-11.108-3.513-11.012-3.797-10.538-4.177-10.253-4.367-9.778-4.557-9.114-4.747-8.544-4.842-8.069-5.031-7.785-5.126-7.31-5.222-7.025-5.316-6.835-5.411-6.455-5.602-6.361-5.601-6.076-5.696-5.696-5.696-5.506-5.696-5.221-5.791-5.032-5.791-4.747-5.696-4.462-5.696-4.082-5.411-3.607-5.316-3.418-5.127-3.133-4.936-2.943-4.747-2.658-4.462-2.468-4.272-2.374-3.987-2.183-3.703-2.089-3.417-2.088-2.943-2.089-2.754-2.088-2.278-2.374-2.088-2.658-1.804-3.038-1.519-3.512-1.329-4.082-1.329-4.842-1.235-5.696-1.518-6.645-1.614-7.69-1.899-8.924-2.468-10.158-3.228-11.392-3.797-12.816-5.032-14.145-6.076-15.475-7.215-16.803-8.354-18.132-9.873-19.272-11.392-20.411-12.911-21.455-14.335-22.404-16.044-23.259-17.468-23.924-19.082-24.683-20.41-25.442-21.836L126.638-.165 99.392-24.373M830.67 371.313l-.474.949-.57 1.045-.57.949-.854 1.044-1.044 1.139-1.424 1.045-1.994 1.234-2.753 1.234-3.418 1.234-4.082 1.234-4.841 1.139-5.696 1.045-6.266.949-7.12.759-7.88.57-8.544.285h-9.208l-9.779-.38-10.347-.664-10.633-1.045-11.107-1.519-11.203-1.803-11.392-2.279-11.582-2.658-11.392-3.038-11.392-3.323-11.107-3.797-10.823-3.987-10.442-4.367-9.969-4.557-9.493-4.747-8.829-4.841-8.069-4.937-7.785-5.126-7.31-5.222-6.93-5.316-6.551-5.316-6.36-5.507-6.171-5.601-5.791-5.601-5.696-5.696-5.316-5.791-5.127-5.696-4.936-5.886-4.747-5.791-4.367-5.696-4.272-5.791-3.702-5.506-3.418-5.411-3.228-5.222-2.943-5.126-2.658-4.842-2.468-4.651-2.279-4.462-2.088-4.177-1.994-3.893-1.898-3.607-1.709-3.228-1.804-2.848-1.804-2.563-1.898-2.279-2.184-1.993-2.468-1.709-2.943-1.519-3.513-1.329-4.082-1.329-5.031-1.519-5.791-1.614-6.836-1.804-7.974-2.278-9.209-2.943-10.443-3.418-11.866-4.557-13.196-5.601-14.62-6.645-15.854-7.785-17.278-9.208-18.512-10.728-19.747-12.341-20.885-13.671-21.835-15.474-22.784-16.899-23.544-18.607-24.303-20.03-25.063-21.55L145.34-3.963l-26.866-24.113m710.203 395.591l-.38.949-.475.949-.664.95-.855.949-1.234 1.044-1.614 1.044-2.278 1.14-3.133 1.234-3.702 1.234-4.462 1.139-5.317 1.139-6.075 1.045-6.836.854-7.594.665-8.355.379-9.018.095-9.684-.095-10.158-.569-10.727-.855-11.107-1.234-11.298-1.709-11.487-2.088-11.582-2.468-11.676-2.849-11.488-3.227-11.297-3.608-11.012-3.892-10.633-4.272-10.158-4.462-9.683-4.652-9.209-4.936-8.354-4.937-7.689-5.031-7.31-5.222-6.931-5.221-6.455-5.317-6.171-5.411-5.981-5.506-5.601-5.601-5.506-5.601-5.221-5.791-5.032-5.696-4.747-5.791-4.556-5.791-4.367-5.791-4.178-5.791-3.892-5.791-3.607-5.601-3.133-5.412-3.038-5.411-2.753-5.221-2.563-5.032-2.279-4.746-2.088-4.652-1.994-4.367-1.709-4.082-1.709-3.798-1.519-3.512-1.519-3.133-1.518-2.753-1.519-2.469-1.804-2.183-1.994-1.899-2.468-1.708-2.943-1.519-3.513-1.519-4.272-1.519-5.126-1.614-5.981-1.804-7.12-2.183-8.354-2.659-9.494-3.227-10.917-4.177-12.247-5.127-13.575-6.171-15-7.215-16.423-8.639-17.753-10.063-18.987-11.677-20.126-13.195-21.36-14.715-22.215-16.424-23.164-18.132-23.923-19.652-24.683-21.17-25.442-22.5-26.392-23.923m689.507 395.401l-.38.95-.474.854-.665.854-1.044.95-1.329 1.044-1.804 1.044-2.563 1.139-3.418 1.235-4.082 1.139-4.842 1.139-5.696 1.044-6.645.95-7.215.759-8.164.57-8.734.284h-9.494l-10.063-.284-10.727-.76-11.013-1.044-11.392-1.424-11.582-1.899-11.582-2.278-11.772-2.658-11.677-3.038-11.487-3.513-11.202-3.702-10.822-4.177-10.443-4.367-9.778-4.557-9.304-4.842-8.829-4.936-7.974-5.032-7.215-5.126-6.836-5.222-6.455-5.221-6.076-5.411-5.696-5.317-5.506-5.601-5.316-5.506-5.032-5.601-4.842-5.696-4.556-5.791-4.462-5.696-4.272-5.791-4.083-5.791-3.797-5.791-3.797-5.886-3.323-5.601-3.038-5.506-5.411-10.823-2.468-5.126-2.184-5.032-1.899-4.747-1.898-4.556-1.614-4.272-1.519-4.083-1.329-3.702-1.329-3.418-1.234-3.038-1.33-2.658-1.423-2.373-1.614-2.184-1.994-1.898-2.468-1.709-2.943-1.614-3.703-1.614-4.367-1.709-5.316-1.803-6.266-2.089-7.499-2.563-8.544-3.038-9.969-3.797-11.297-4.747-12.721-5.696-14.05-6.741-15.474-8.069-16.899-9.493-18.227-11.108-19.557-12.531-20.6-14.24-21.74-15.76-22.69-17.657-23.543-19.177-24.208-20.79-25.063-22.31-25.917-23.733M824.879 360.11l-.379.759-.475.855-.76.854-1.044.854-1.614 1.045-1.993 1.044-2.848 1.044-3.703 1.234-4.462 1.14-5.316 1.044-6.076 1.044-7.025.855-7.784.664-8.45.475-9.303.19-9.873-.095-10.538-.475-10.918-.854-11.392-1.33-11.677-1.613-11.771-2.089-11.772-2.468-11.772-2.848-11.677-3.228-11.392-3.608-11.012-3.987-10.633-4.177-10.063-4.557-9.493-4.651-8.829-4.937-8.355-5.032-7.499-5.031-6.741-5.127-6.36-5.221-6.076-5.316-5.601-5.317-5.222-5.411-5.126-5.411-4.842-5.601-4.651-5.601-4.462-5.601-4.272-5.696-4.083-5.697-3.987-5.79-3.797-5.791-3.608-5.791-3.512-5.791-3.133-5.697-2.848-5.601-2.753-5.601-2.563-5.411-2.279-5.316-2.088-5.127-1.899-4.841-1.709-4.747-2.943-8.829-1.234-3.892-1.139-3.703-1.139-3.228-1.045-2.942-1.139-2.659-1.329-2.373-1.614-2.089-1.993-1.993-2.469-1.804-3.133-1.709-3.797-1.803-4.557-1.899-5.601-2.089-14.335-5.316-9.019-3.608-10.348-4.461-11.771-5.222-13.196-6.36-14.62-7.5-15.949-9.019-17.468-10.538-18.797-11.961-19.936-13.576-21.17-15.284-22.12-17.089-23.164-18.702-23.829-20.41-24.682-22.025-25.538-23.449m648.686 395.211l-.38.76-.475.759-.759.855-1.329.854-1.709.949-2.279 1.045-3.132 1.139-4.083 1.139-4.841 1.139-5.696 1.045-6.551.949-7.405.759-8.164.57-8.924.38-9.683.095-10.253-.285-10.822-.665-11.298-1.044-11.582-1.329-11.866-1.899-11.867-2.183-11.867-2.658-11.772-3.038-11.582-3.418-11.202-3.797-10.917-4.082-10.253-4.367-9.684-4.557-9.018-4.747-8.449-4.937-7.785-5.126-7.025-5.032-6.266-5.126-5.981-5.221-5.506-5.222-5.126-5.316-4.937-5.411-4.652-5.412-4.462-5.506-4.272-5.506-4.082-5.601-3.892-5.696-3.797-5.696-3.703-5.696-3.512-5.791-3.418-5.791-3.323-5.791-3.038-5.696-2.753-5.696-2.563-5.601-2.468-5.507-2.279-5.411-2.088-5.316-1.804-5.032-1.614-4.936-1.519-4.747-1.329-4.462-1.139-4.177-1.044-3.892-.95-3.513-.854-3.228-.95-2.848-1.044-2.658-1.329-2.373-1.614-2.184-2.088-1.993-2.563-1.899-3.228-1.899-3.988-1.993-4.841-2.184-5.886-2.373-6.93-2.848-8.165-3.418-9.493-4.177-10.823-4.936-12.151-5.886-13.766-7.12-15.094-8.45-16.614-10.063-17.942-11.392-19.272-13.006-20.601-14.62-21.55-16.613-22.689-18.227-23.449-20.032-24.303-21.644-25.062-23.165M821.082 352.8l-.285.664-.569.76-.855.759-1.519.95-1.993.949-2.564 1.044-3.417 1.044-4.367 1.14-5.222 1.044-6.075 1.044-6.931.855-7.784.759-8.544.475-9.399.285-9.968-.095-10.632-.38-11.108-.76-11.582-1.234-11.772-1.519-11.961-1.993-11.962-2.469-11.867-2.753-11.677-3.227-11.392-3.513-11.012-3.892-10.633-4.272-9.873-4.462-9.304-4.652-8.544-4.747-7.879-4.936-7.31-5.127-6.551-5.031-5.791-5.127-5.506-5.221-5.031-5.221-4.747-5.222-4.367-5.316-4.272-5.411-4.082-5.412-3.892-5.506-3.798-5.506-3.607-5.601-3.513-5.601-3.417-5.696-3.323-5.791-3.228-5.791-3.038-5.791-2.943-5.696-2.658-5.696-2.563-5.696-2.468-5.602-2.184-5.601-1.994-5.316-1.803-5.221-1.614-5.127-1.519-4.936-1.329-4.652-1.139-4.462-.95-4.082-.759-3.798-.76-3.512-.854-3.133-.76-2.848-1.044-2.658-1.329-2.374-1.709-2.278-2.088-2.089-2.753-2.088-3.418-1.994-4.177-2.278-5.127-2.468-6.17-2.754-7.405-3.227-18.512-8.639-11.298-5.601-12.721-6.741-14.335-7.974-15.664-9.494-17.183-10.917-18.512-12.437-19.936-14.145L304.26 35.72l-22.12-17.752L259.071-1.59l-23.828-21.265-24.778-22.88m608.718 395.022l-.285.57-.569.664-1.139.855-1.614.854-2.279.949-2.848 1.045-3.797 1.044-4.747 1.139-5.601 1.045-6.36.949-7.405.854-8.165.57-8.923.475-9.684.094-10.253-.189-10.917-.57-11.392-.854-11.677-1.329-11.867-1.709-12.057-2.184-11.866-2.563-11.772-2.943-11.582-3.323-11.202-3.702-10.728-3.987-10.253-4.272-9.493-4.557-8.829-4.652-7.975-4.842-7.31-4.936-6.74-5.032-5.886-5.031-5.221-5.032-4.842-5.126-4.557-5.127-4.082-5.126-3.892-5.221-3.797-5.222-3.513-5.316-3.418-5.317-3.322-5.411-3.133-5.411-6.266-11.012-3.133-5.696-3.038-5.696-3.037-5.791-2.848-5.791-2.754-5.791-2.658-5.696-2.468-5.791-2.373-5.697-2.184-5.601-1.899-5.411-1.803-5.411-1.614-5.127-1.424-5.031-1.234-4.652-1.045-4.462-.854-4.082-.76-3.797-.664-3.513-.76-3.133-.759-2.848-1.044-2.658-1.329-2.468-1.709-2.279-2.279-2.183-2.848-2.279-3.702-2.278-4.462-2.468-5.411-2.753-6.646-3.228-7.689-3.797-9.114-4.462-10.443-5.317-11.866-6.36-13.386-7.69-14.81-9.019L377.549 71.7l-17.752-11.962-19.177-13.576-20.411-15.569-21.55-17.278-22.594-19.082-23.449-20.885-24.303-22.595M817.38 345.776l-.285.569-.76.665-1.234.759-1.899.855-2.563 1.044-3.133.949-4.177 1.045-5.031 1.139-5.981.949-6.74.949-7.69.76-8.544.57-9.304.284h-9.968l-10.537-.284-11.108-.665-11.487-1.044-11.867-1.519-11.961-1.804-11.962-2.278-11.867-2.754-11.677-3.037-11.297-3.513-10.917-3.797-10.443-4.083-9.778-4.367-9.019-4.461-8.164-4.747-7.405-4.842-6.646-4.841-6.17-4.937-5.222-5.032-4.652-4.936-4.272-5.032-3.987-4.936-3.607-5.032-3.418-5.126-3.228-5.127-3.133-5.126-3.037-5.221-2.943-5.222-2.848-5.316-8.639-16.424-2.848-5.696-2.943-5.696-2.848-5.791-2.754-5.791-2.753-5.886-2.563-5.886-2.468-5.791-2.279-5.696-2.088-5.601-1.899-5.601-1.804-5.411-1.518-5.222-1.33-4.936-1.139-4.747-.949-4.462-.76-4.082-.664-3.797-.665-3.513-.664-3.133-.76-2.943-1.139-2.658-1.424-2.563-1.804-2.373-2.468-2.374-3.038-2.468-3.892-2.563-4.747-2.753-5.886-3.228-6.93-3.608-8.259-4.367-9.589-5.031-11.012-6.17-12.436-7.31-14.051-8.64-15.474-9.968-16.898-11.487-18.417-13.1-19.747-15-20.98-16.804-22.025-18.702-22.974-20.506-24.018-22.214m569.7 395.021l-.38.57-.854.664-1.424.76-2.184.854-2.753.949-3.512 1.045-4.462 1.044-5.412 1.044-6.265.95-7.12.854-8.07.665-8.829.474-9.493.285-10.253-.095-10.822-.475-11.203-.759-11.677-1.139-11.866-1.614-11.962-1.994-11.962-2.468-11.677-2.848-11.487-3.133-11.012-3.607-10.538-3.893-9.968-4.082-9.303-4.462-8.45-4.462-7.499-4.746-6.741-4.747-6.076-4.842-5.506-4.841-4.652-4.937-4.082-4.842-3.797-4.841-3.513-4.937-3.132-4.936-3.038-4.937-5.696-10.063-5.317-10.253-2.658-5.221-2.658-5.317-2.753-5.411-2.753-5.506-2.753-5.601-2.753-5.696-2.848-5.791-5.507-11.772-2.658-5.886-2.563-5.886-2.278-5.886-2.184-5.791-2.088-5.696-1.899-5.601-1.614-5.506-1.519-5.222-1.139-4.936-1.044-4.747-.76-4.367-.759-4.082-.57-3.797-.57-3.418-.664-3.228-.855-2.943-1.139-2.753-1.424-2.658-1.993-2.468-2.659-2.564-3.322-2.658-4.177-2.848-5.127-3.133-6.171-3.607-7.499-4.272-8.734-4.937-10.158-5.886-11.582-7.025-13.101-8.259-14.62-9.588-16.139-11.108-17.658-12.626-18.986-14.525-20.316-16.234-21.455-18.227-22.595-20.126-23.544-21.835m550.334 395.021l-.38.475-1.044.665-1.614.759-2.373.949-3.038.95-3.797.949-4.842 1.044-5.696 1.045-6.551.949-7.499.759-8.26.665-9.113.38-9.779.095-10.442-.19-11.013-.57-11.297-.854-11.772-1.329-11.866-1.709-11.962-2.184-11.772-2.468-11.487-2.943-11.107-3.323-10.728-3.607-10.158-3.987-9.493-4.177-8.734-4.367-7.69-4.557-6.93-4.652-6.171-4.652-5.411-4.841-4.937-4.747-4.082-4.747-3.702-4.841-3.323-4.747-3.038-4.842-2.848-4.841-2.658-4.842-2.658-4.937-2.563-5.031-4.937-10.063-2.468-5.222-2.564-5.221-5.126-10.822-2.658-5.507-5.316-11.392-2.754-5.791-2.658-5.886-2.658-5.981-2.563-5.98-2.468-5.981-2.184-5.791-2.183-5.886-1.994-5.791-1.709-5.601-1.614-5.506-1.329-5.222-1.044-4.936-.854-4.652-.76-4.462-.664-4.082-.475-3.703-.475-3.417-.759-3.228-.855-3.038-1.234-2.848-1.614-2.753-2.183-2.753-2.753-2.753-3.608-2.943-4.557-3.228-5.506-3.513-6.645-4.177-7.975-4.841-9.303-5.696-10.728-6.74-12.246-7.975-13.766-9.209-15.284-10.727-16.803-12.247-18.228-13.955L346.696-.83 325.81-18.582l-22.025-19.651-23.163-21.455m531.251 395.116l-.474.474-1.234.665-1.804.759-2.658.95-3.323.949-4.082.949-5.032 1.045-6.076.949-6.835.949-7.784.665-8.544.57-9.304.284-9.968.095-10.633-.284-11.107-.665-11.392-1.044-11.772-1.424-11.772-1.804-11.772-2.278-11.582-2.659-11.297-3.038-10.822-3.322-10.253-3.703-9.684-3.987-9.018-4.177-8.165-4.462-7.12-4.462-6.265-4.557-5.506-4.651-4.937-4.747-4.272-4.652-3.703-4.747-3.227-4.651-2.943-4.747-2.753-4.747-2.564-4.747-4.936-9.683-2.374-4.936-4.746-10.063-2.279-5.127-2.373-5.221-2.468-5.317-2.374-5.316-2.563-5.506-2.468-5.601-2.563-5.696-2.659-5.696-2.563-5.886-2.658-5.981-2.563-5.981-2.468-5.981-2.279-5.981-2.183-5.981-2.089-5.885-1.804-5.791-1.708-5.602-1.424-5.506-1.14-5.126-.949-4.937-.854-4.746-.57-4.367-.475-3.988-.474-3.702-.475-3.513-.76-3.227-.949-3.038-1.234-2.943-1.804-2.943-2.373-2.943-3.038-3.038-3.987-3.228-4.842-3.607-5.981-4.083-7.12-4.746-8.544-5.601-9.968-6.55-11.297-7.69-12.911-8.924-14.43-10.348-15.949-11.867-17.468-13.48-18.987-15.38-20.221-17.278-21.455-19.272L297.71-63.2m512.36 395.306l-.665.475-1.329.664-2.089.76-2.848.949-3.607.949-4.462.95-5.411 1.044-6.266.854-7.12.855-7.974.664-8.734.475-9.494.285-10.158-.095-10.727-.38-11.108-.759-11.487-1.139-11.582-1.519-11.677-1.994-11.582-2.373-11.297-2.659-10.917-3.132-10.443-3.418-9.873-3.797-9.304-3.988-8.354-4.177-7.595-4.367-6.55-4.462-5.696-4.556-4.937-4.557-4.462-4.652-3.797-4.652-3.323-4.557-2.848-4.651-2.753-4.652-2.468-4.652-2.373-4.747-2.279-4.746-2.373-4.842-2.184-4.937-2.278-4.936-4.367-10.063-4.557-10.443-2.278-5.316-2.374-5.412-2.373-5.506-4.937-11.392-2.468-5.886-2.563-5.886-2.563-5.981-2.374-5.98-2.373-6.076-2.184-5.981-2.088-5.981-1.994-5.886-1.708-5.791-1.519-5.601-1.235-5.411-1.044-5.222-.854-4.936-.665-4.557-.38-4.272-.474-3.987-.38-3.703-.57-3.512-.664-3.323-1.044-3.133-1.424-3.133-1.994-3.038-2.563-3.132-3.418-3.418-4.272-3.608-5.316-4.082-6.456-4.746-16.898-11.962-10.538-7.5-11.961-8.639L427.2 29.075l-15.095-11.487-16.708-13.1-18.132-14.906-19.652-16.803-20.79-18.892-22.12-20.695m493.468 395.685l-.76.475-1.518.665-2.279.759-3.133.854-3.892.95-4.747 1.044-5.696.949-6.55.855-7.31.759-8.259.665-8.924.38-9.589.094-10.253-.094-10.727-.57-11.202-.854-11.298-1.235-11.581-1.614-11.488-2.088-11.297-2.373-11.012-2.848-10.538-3.133-10.063-3.513-9.398-3.797-8.829-3.987-7.785-4.178-7.025-4.367-5.886-4.461-5.221-4.462-4.462-4.462-3.892-4.557-3.418-4.557-2.943-4.557-2.658-4.557-2.563-4.651-4.557-9.304-2.184-4.747-2.183-4.841-2.089-4.842-2.183-4.937-1.994-4.936-2.088-5.032-2.089-5.126-4.367-10.443-2.278-5.411-4.557-11.012-2.374-5.697-2.373-5.79-2.468-5.886-4.747-11.962-2.278-5.981-2.184-6.076-2.088-5.981-1.899-5.981-1.804-5.885-1.519-5.791-1.329-5.507-1.139-5.411-.949-5.126-.665-4.842-.475-4.462-.379-4.272-.285-3.892-.475-3.797-.474-3.513-.855-3.418-1.139-3.322-1.614-3.228-2.278-3.323-2.848-3.513-3.798-3.702-4.652-4.177-5.791-4.747-7.12-5.506-18.037-13.67-11.202-8.45-26.962-20.885L409.447-.83l-17.373-14.43-18.892-16.424L352.961-50.1l-21.55-20.316M806.272 325.65l-.854.474-1.709.665-2.563.759-3.418.855-4.082.949-5.032.949-5.885.95-6.836.854-7.499.76-8.355.474-9.113.38h-9.779l-10.253-.19-10.822-.664-11.012-.95-11.298-1.329-11.297-1.709-11.297-2.183-11.012-2.468-10.633-2.943-10.253-3.228-9.588-3.513-9.019-3.797-8.354-3.987-7.215-4.177-6.456-4.367-5.411-4.367-4.652-4.367-4.082-4.462-3.512-4.462-3.038-4.557-2.658-4.462-2.469-4.557-2.373-4.557-2.184-4.556-2.183-4.652-2.089-4.747-1.993-4.747-2.089-4.841-1.898-4.842-1.994-4.937-1.899-5.031-1.993-5.032-2.089-5.221-1.994-5.221-2.183-5.317-2.089-5.411-2.183-5.601-2.278-5.601-2.374-5.791-2.278-5.791-2.279-5.886-2.278-5.981-2.184-5.981-2.088-5.981-2.089-6.075-1.898-5.981-1.709-5.886-1.614-5.886-1.424-5.696-1.139-5.506-.95-5.317-.759-5.126-.475-4.747-.38-4.367-.284-4.177-.285-3.987-.38-3.797-.664-3.608-.95-3.513-1.329-3.417-1.804-3.513-2.468-3.607-3.323-3.893-4.082-4.272-5.221-4.746-6.361-5.506-7.594-6.266-9.019-7.215-10.348-8.354-11.867-9.494-13.386-10.917-14.999-12.437-16.519-14.05-18.132-16.044-19.462-17.942-20.98-19.936m456.444 396.445l-1.045.474-1.898.665-2.753.854-3.608.855-4.462.949-5.221.949-6.171.855-7.025.854-7.69.665-8.449.475-9.209.189h-9.778l-10.348-.379-10.632-.665-11.013-1.139-11.107-1.424-11.107-1.804-11.013-2.183-10.727-2.659-10.253-2.942-9.873-3.228-9.209-3.608-8.544-3.797-7.879-3.987-6.741-4.177-5.886-4.272-4.936-4.273-4.177-4.366-3.608-4.367-3.228-4.462-2.753-4.462-2.468-4.462-2.373-4.462-2.279-4.557-2.088-4.557-3.988-9.303-1.993-4.747-1.899-4.842-3.607-9.683-1.804-4.937-1.899-5.031-1.899-5.127-1.993-5.221-1.994-5.316-2.088-5.317-2.089-5.506-2.088-5.601-2.184-5.696-2.278-5.791-2.184-5.886-2.088-5.886-2.089-5.981-3.987-11.961-1.804-5.981-1.709-5.981-1.614-5.886-1.424-5.791-1.234-5.696-1.044-5.506-.76-5.222-.569-4.936-.285-4.652-.285-4.367-.19-4.177-.284-3.987-.475-3.798-.665-3.702-1.139-3.702-1.519-3.703-2.088-3.797-2.753-3.988-3.703-4.272-4.652-4.841-5.696-5.506-6.93-6.266-8.259-7.215-9.588-8.164-11.013-9.399L450.459.975l-14.145-12.152-15.664-13.67-17.374-15.665-18.796-17.563-20.316-19.556m438.311 396.92l-1.234.475-2.089.664-3.038.855-3.797.854-4.652.949-5.506.95-6.361.854-7.12.76-7.879.569-8.639.38-9.209.19-9.873-.19-10.253-.38-10.633-.854-10.822-1.139-10.917-1.519-10.918-1.899-10.727-2.279-10.348-2.658-9.968-3.038-9.494-3.322-8.829-3.513-8.164-3.892-7.31-3.987-6.171-4.083-5.411-4.272-4.462-4.272-3.797-4.272-3.228-4.367-2.848-4.367-2.563-4.367-2.279-4.367-2.278-4.461-2.184-4.557-1.993-4.557-5.696-13.955-1.709-4.747-1.804-4.842-1.709-4.841-3.417-9.874-1.804-5.126-1.899-5.127-3.797-10.632-1.994-5.411-2.088-5.602-4.177-11.392-2.089-5.791-1.993-5.886-3.798-11.771-1.804-5.981-3.417-11.962-1.614-5.886-1.424-5.886-1.234-5.791-1.045-5.601-.854-5.411-.57-5.127-.284-4.841-.285-4.557-.095-4.367-.19-4.177-.285-3.987-.569-3.893-.855-3.892-1.234-3.892-1.804-3.988-2.373-4.082-3.228-4.462-4.082-5.031-5.126-5.506-6.266-6.266-7.595-7.215-8.829-8.07-10.158-9.208-11.771-10.538-13.291-11.772-14.81-13.48-16.519-15.19-18.037-17.278-19.651-19.176m420.368 397.489l-3.702 1.234-3.228.76-3.987.949-4.937.854-5.696.95-6.55.759-7.31.76-7.975.474-8.639.38h-9.303l-9.779-.19-10.252-.569-10.538-.855-10.728-1.234-10.727-1.614-10.633-1.993-10.443-2.374-10.063-2.658-9.588-3.038-9.114-3.322-8.449-3.608-7.69-3.892-6.93-3.987-5.601-4.083-4.936-4.177-3.988-4.177-3.417-4.272-2.943-4.272-2.563-4.367-2.374-4.272-2.183-4.367-2.184-4.462-2.088-4.557-1.899-4.557-1.804-4.556-1.804-4.652-3.417-9.304-1.614-4.841-1.614-4.747-1.614-4.937-1.709-4.936-1.708-5.032-1.709-5.126-1.804-5.222-1.804-5.316-1.898-5.411-1.899-5.506-1.994-5.601-1.993-5.791-1.994-5.696-3.607-11.582-3.418-11.772-1.614-5.886-1.614-5.981-1.519-5.981-1.424-5.886-1.234-5.886-1.139-5.696-.855-5.6-.569-5.222-.38-5.032-.19-4.746-.19-8.924-.19-4.177-.379-4.083-.665-4.082-.949-4.082-1.519-4.082-1.994-4.367-2.753-4.557-3.607-5.032-4.652-5.695-5.696-6.266-6.835-7.12-8.165-8.07-9.398-9.113-10.918-10.348-12.436-11.582-14.05-13.196-15.664-14.905-17.278-16.898-18.797-18.797m402.616 398.059l-1.614.475-2.469.759-7.689 1.709-5.032.855-5.886.854-6.74.759-7.405.665-8.069.475-8.734.19h-9.304l-9.778-.285-10.158-.57-10.443-1.044-10.538-1.234-10.442-1.709-10.443-2.089-10.158-2.468-9.778-2.753-9.304-3.038-8.734-3.323-8.069-3.702-7.31-3.797-6.361-3.988-5.126-4.082-4.462-4.082-3.513-4.177-3.132-4.177-2.564-4.272-2.373-4.272-2.278-4.272-2.089-4.367-3.987-8.924-1.899-4.462-1.709-4.557-1.708-4.652-3.228-9.303-3.038-9.494-1.519-4.841-1.519-4.937-3.228-10.063-1.709-5.221-1.708-5.317-1.804-5.316-1.804-5.506-3.797-11.202-1.804-5.696-1.709-5.791-1.614-5.696-1.614-5.791-1.519-5.791-1.519-5.886-1.424-5.886-1.518-5.981-1.33-5.981-1.234-5.886-1.139-5.79-.854-5.602-.665-5.506-.38-5.127-.19-4.936-.094-4.747v-4.462l-.095-4.367-.19-4.272-.475-4.272-.759-4.272-1.234-4.272-1.709-4.462-2.374-4.746-3.132-5.127-4.178-5.791-5.126-6.36-6.171-7.216-7.5-7.974-8.734-9.019-10.063-10.253-11.582-11.392-13.195-12.91-14.81-14.62-16.424-16.614-18.132-18.418m385.148 398.724l-1.709.475-2.753.664-3.513.855-4.461.854-5.222.855-6.076.854-6.835.665-7.595.664-8.164.38-8.734.19-9.304-.095-9.683-.38-10.063-.759-10.348-1.045-10.347-1.424-10.253-1.708-10.158-2.184-9.873-2.468-9.494-2.753-8.924-3.133-8.354-3.418-7.69-3.607-6.93-3.798-5.886-3.987-4.651-3.987-3.988-4.177-3.133-4.082-2.753-4.178-2.373-4.177-2.183-4.177-2.089-4.272-3.987-8.734-1.899-4.462-1.709-4.462-3.228-9.113-3.037-9.304-1.424-4.652-1.424-4.746-2.848-9.684-3.038-10.063-1.614-5.126-1.614-5.221-3.418-10.823-1.804-5.506-1.803-5.601-1.709-5.696-3.038-11.392-2.848-11.392-1.234-5.791-1.329-5.886-1.424-5.886-1.329-5.981-2.279-11.772-.854-5.696-.665-5.601-.474-5.317-.19-5.126V59.74l-.095-4.462-.285-4.462-.57-4.462-.949-4.462-1.424-4.652-1.994-4.841-2.848-5.317-3.607-5.79-4.557-6.456L520.9 7.62l-6.74-7.975-8.07-9.018-9.398-10.063-10.728-11.297-12.341-12.722-13.956-14.335-15.569-16.234L426.82-92.25m367.965 399.388l-1.993.57-2.848.665-3.703.759-4.652.854-5.411.855-6.171.854-6.93.665-7.689.474-8.26.38-8.734.095-9.303-.19-9.684-.474-9.968-.76-10.158-1.139-10.158-1.424-10.063-1.899-9.873-2.183-9.588-2.469-9.209-2.848-8.544-3.227-7.974-3.323-7.31-3.703-6.551-3.797-5.411-3.892-4.177-3.987-3.513-4.083-2.848-4.082-2.373-4.082-2.183-4.177-1.994-4.177-1.994-4.272-1.898-4.272-1.899-4.367-1.804-4.462-1.614-4.462-1.519-4.462-3.037-9.114-1.33-4.651-1.424-4.652-1.329-4.747-1.234-4.747-1.329-4.841-1.424-4.937-1.519-5.031-1.519-5.127-1.519-5.221-1.519-5.316-1.709-5.412-1.708-5.506-1.614-5.506-1.614-5.696-1.519-5.601-1.329-5.601-1.234-5.696-1.234-5.602-1.14-5.696-1.234-5.791-1.234-5.886-1.234-5.98-1.139-5.886-1.045-5.981-.949-5.791-.664-5.601-.38-5.507-.285-5.316v-5.031l.19-9.494V51.48l-.19-4.557-.38-4.652-.759-4.652-1.139-4.747-1.709-5.031-2.374-5.411-3.132-5.981-4.178-6.55-5.031-7.216-6.171-7.974-7.31-8.924-8.639-9.968-9.968-11.202-11.487-12.437-13.101-14.145-14.81-15.949-16.423-17.942m351.067 400.147l-2.089.475-6.93 1.519-4.747.759-5.506.855-6.361.759-7.025.57-7.689.475-8.26.284h-8.829l-9.208-.189-9.684-.57-9.873-.854-9.968-1.14-9.968-1.614-9.873-1.898-9.588-2.184-9.304-2.563-8.829-2.943-8.354-3.133-7.595-3.417-6.93-3.703-6.171-3.797-4.936-3.892-3.703-3.988-3.132-3.987-2.469-3.987-2.183-4.082-1.899-4.083-1.899-4.177-1.898-4.272-1.804-4.272-3.418-8.734-1.614-4.367-1.424-4.462-2.848-9.113-1.329-4.652-1.234-4.557-2.468-9.493-1.234-4.842-1.329-4.937-1.424-4.936-2.848-10.253-3.038-10.633-3.228-11.012-2.848-11.202-1.139-5.506-1.234-5.602-1.045-5.601-.949-5.601-1.044-5.791-1.14-5.791-1.139-5.886-1.044-5.98-.949-5.886-.855-5.886-.664-5.696-.475-5.602-.285-5.506v-5.126l.095-4.937.19-4.841.095-4.842V43.22l-.285-4.841-.475-4.747-.949-5.032-1.329-5.126-2.089-5.506-2.753-6.076-3.702-6.645-4.557-7.31-5.506-7.975-6.645-8.924-7.975-9.873-9.209-11.012-10.632-12.342-12.247-13.955-13.86-15.664-15.664-17.658m334.548 400.812l-2.279.57-3.227.665-3.988.759-4.841.759-5.696.76-6.456.759-7.12.57-7.689.38-8.26.285-8.829-.095-9.208-.285-9.494-.57-9.778-.949-9.778-1.329-9.778-1.614-9.684-1.899-9.398-2.278-9.019-2.658-8.544-2.943-7.974-3.228-7.31-3.418-6.551-3.607-5.696-3.798-4.557-3.892-3.227-3.892-2.848-3.987-2.089-3.988-1.899-3.987-1.804-4.082-1.803-4.177L600.36 246l-3.418-8.544-1.519-4.367-1.519-4.462-1.329-4.367-1.424-4.557-1.234-4.462-1.234-4.557-1.139-4.652-1.234-4.651-2.279-9.494-2.658-9.873-2.658-10.253-1.424-5.221-1.424-5.317-1.519-5.411-1.519-5.506-1.424-5.601-1.234-5.506-1.139-5.506-1.045-5.602-.854-5.506-1.709-11.202-1.898-11.582-.95-5.886-.949-5.98-.76-5.887-.664-5.79-.475-5.697-.285-5.6-.095-5.317.285-5.032.19-5.031.285-4.842v-4.936l-.095-5.032-.38-4.937-.664-5.126-1.045-5.316-1.708-5.696-2.469-6.171-3.228-6.74-4.082-7.31-4.936-8.07-6.076-8.829-7.215-9.873-8.449-10.917-9.873-12.247-11.392-13.67-13.006-15.475-14.715-17.372m318.124 401.476l-2.373.57-3.323.664-4.177.665-4.936.76-5.791.759-6.456.665-7.12.569-7.785.38-8.259.095-8.734-.095-9.114-.38-9.398-.664-9.683-1.045-9.684-1.329-9.588-1.614-9.398-1.993-9.114-2.374-8.734-2.658-8.259-2.943-7.69-3.227-7.025-3.513-6.266-3.608-5.316-3.797-4.082-3.797-2.943-3.893-2.374-3.987-1.898-3.892-1.804-3.987-3.228-8.165-1.614-4.177-1.614-4.272-3.037-8.544-1.33-4.367-1.234-4.367-1.329-4.462-1.139-4.557-1.139-4.462-1.044-4.651-1.14-4.557-2.088-9.494-1.234-4.841-1.235-4.937-1.329-5.126-1.234-5.032-1.329-5.221-1.424-5.316-2.848-10.823-1.329-5.601-1.139-5.506-.949-5.412-.855-5.506-.759-5.506-.665-5.411-.759-5.601-.855-5.791-.759-5.696-.855-5.886-1.519-11.772-.664-5.886-.38-5.696-.38-5.791v-5.411l.19-5.222.285-5.126.285-5.032.19-5.126v-5.126l-.19-5.127-.475-5.316-.854-5.412-1.424-5.885-2.089-6.266-2.753-6.74-3.607-7.5-4.462-8.07-5.412-8.829-6.55-9.873-7.785-10.822-9.113-12.057-10.538-13.575-12.152-15.285-13.86-17.088M787.001 295.65l-2.564.57-3.417.664-4.272.665-5.032.759-5.791.665-6.55.665-7.215.474-7.785.285-8.259.095-8.639-.19-9.114-.475-9.303-.664-9.494-1.139-9.493-1.329-9.399-1.709-9.208-2.089-8.924-2.373-8.449-2.753-7.975-2.943-7.405-3.228-6.74-3.512-5.981-3.608-4.841-3.797-3.703-3.798-2.563-3.892-2.089-3.892-1.708-3.893-3.038-7.974-1.424-4.082-1.614-4.177-2.848-8.355-1.329-4.367-1.234-4.272-1.14-4.367-1.139-4.462-1.044-4.366-1.044-4.557-1.899-9.114-.95-4.652-1.044-4.747-2.278-9.683-1.234-5.031-1.14-5.032-1.234-5.221-1.329-5.222-1.424-5.411-1.329-5.411-1.234-5.506-1.044-5.506-.855-5.412-.759-5.411-.57-5.411-.474-5.411-.665-5.507-1.329-11.392-1.329-11.582-.665-5.886-.569-5.886-.475-5.886-.38-5.79-.095-5.602.285-5.41.38-5.222.569-10.443.095-5.221-.094-5.412-.285-5.41-.665-5.602-1.139-5.98-1.709-6.361-2.468-6.93-3.133-7.5-3.987-8.165-4.842-8.829-5.981-9.873-7.025-10.727-8.259-11.962-9.778-13.386-11.392-15.094-13.006-16.994m286.606 402.901l-2.658.475-3.513.664-4.367.665-5.126.665-5.791.664-6.646.57-7.215.474-7.784.19-8.165.095-8.639-.285-9.018-.474-9.209-.76-9.303-1.139-9.399-1.519-9.209-1.709-8.923-2.183-8.734-2.374-8.26-2.753-7.689-3.038-7.12-3.227-6.456-3.418-5.696-3.702-4.462-3.703-3.323-3.797-2.183-3.893-1.899-3.797-1.519-3.892-1.329-3.987-1.424-3.988-1.329-3.987-1.424-4.177-1.329-4.177-1.234-4.177-1.234-4.272-2.089-8.544-1.044-4.367-.854-4.462-.95-4.367-2.563-13.671-.854-4.652-1.045-4.841-1.139-4.937-1.044-4.936-1.044-5.032-1.14-5.031-1.234-5.222-1.329-5.411-1.234-5.411-1.139-5.412-.95-5.411-.759-5.411-.57-5.316-.759-10.633-.475-5.506-.569-5.601-.475-5.601-.475-5.696-.569-5.791-1.14-11.772-.474-5.981-.38-5.886-.19-5.791.19-5.506.475-5.316.379-5.412.285-5.316.19-5.506v-5.506l-.19-5.601-.474-5.792-.855-6.075-1.424-6.456-2.088-7.025-2.754-7.69-3.512-8.164-4.367-8.924-5.316-9.778-6.361-10.727-7.5-11.773-9.018-13.385-10.538-14.905-12.152-16.708m271.227 403.47l-2.753.475-3.607.569-4.367.665-5.127.665-5.981.664-6.645.475-7.215.379-7.785.19h-8.164l-8.544-.284-8.924-.57-9.019-.854-9.303-1.235-9.114-1.519-9.114-1.803-8.734-2.184-8.449-2.468-8.069-2.753-7.5-2.943-6.835-3.323-6.171-3.418-5.411-3.702-4.177-3.702-2.848-3.798-1.899-3.797-1.614-3.892-1.329-3.798-1.329-3.892-1.139-3.987-1.234-3.988-1.329-4.177-1.234-4.082-1.045-4.177-1.139-4.177-.854-4.272-.95-4.272-.759-4.367-.76-4.272-1.519-8.924-.664-4.462-.76-4.557-.759-4.651-.949-4.747-1.045-4.842-.949-4.841-.949-5.032-1.045-5.032-1.044-5.126-1.234-5.316-1.139-5.317-1.045-5.411-.854-5.411-.57-5.316-.379-5.222-.285-5.221-.19-5.316-.38-5.412-.759-11.012-.285-5.696-.38-5.696-.474-5.791-.57-5.981-.475-5.98-.474-6.077-.19-5.886.095-5.696.474-5.41.76-11.013.19-5.696.095-5.601v-5.791l-.38-5.981-.665-6.171-1.139-6.645-1.804-7.215-2.373-7.69-3.133-8.26-3.797-8.923-4.747-9.778-5.696-10.633-6.835-11.867-8.259-13.196-9.684-14.714-11.297-16.614M781.4 287.391l-2.849.475-3.607.569-9.683 1.234-5.886.57-6.646.475-7.215.285-7.784.189-8.07-.095-8.544-.379-8.829-.57-9.018-.949-9.019-1.234-9.114-1.519-8.829-1.899-8.639-2.183-8.259-2.469-7.785-2.848-7.309-3.038-6.551-3.227-5.981-3.513-5.221-3.607-3.703-3.798-2.563-3.702-1.709-3.798-1.424-3.797-2.278-7.785-1.044-3.892-1.045-3.987-1.234-4.082-1.044-4.083-1.899-8.354-.759-4.177-.665-4.177-.664-4.272-.57-4.367-.664-4.272-.57-4.462-.57-4.367-1.139-9.114-.854-4.651-2.564-14.525-.854-5.032-1.044-5.126-1.044-5.222-1.045-5.316-.949-5.316-.665-5.317-.474-5.221-.285-5.126v-5.222l-.095-5.221-.19-5.316-.285-5.412-.379-11.012-.19-5.696-.475-5.791-.949-11.962-.57-6.17-.285-6.076.095-5.886.38-5.506.475-5.602.379-5.696.38-11.677V8.19l-.095-6.171-.475-6.36-.949-6.741-1.519-7.31-2.088-7.785-2.658-8.354-3.323-8.924-4.177-9.778-5.127-10.633-6.17-11.771-7.5-13.101-8.924-14.715-10.443-16.424m241.513 404.515l-2.848.475-8.165 1.044-5.221.57-5.981.569-6.645.475-7.215.285-7.69.095-8.069-.19-8.45-.38-8.733-.665-8.924-.949-8.924-1.329-8.924-1.614-8.734-1.899-8.449-2.183-8.069-2.563-7.595-2.753-7.025-3.133-6.456-3.228-5.696-3.513-4.936-3.702-3.418-3.702-2.184-3.703-1.518-3.797-1.235-3.798-1.044-3.797-.949-3.892-.855-3.893-.949-3.987-1.044-3.987-.95-4.082-.854-4.082-.665-4.178-.569-4.082-.57-4.177-.474-4.272-.38-4.177-.38-4.367-.475-4.272-.379-4.367-.38-4.462-.475-4.462-.664-4.651-1.519-9.494-.665-4.842-.664-4.936-.855-5.032-.949-5.126-.949-5.221-.855-5.317-.569-5.221-.285-5.127-.095-5.126.095-5.127V98.852l-.38-21.835-.285-5.791-.474-5.886-.475-6.17-.665-6.172-.379-6.265-.095-5.981.474-5.696.38-5.696.38-5.886.285-5.98.19-5.982.094-6.076V-.829l-.284-6.55-.76-6.93-1.139-7.31-1.804-7.975-2.278-8.355-2.848-9.018-3.703-9.778-4.462-10.633-5.601-11.772-6.74-13.006-8.164-14.525-9.589-16.424m227.083 404.99l-2.943.475-8.164 1.044-5.317.474-5.981.57-6.645.38-7.215.19-7.595.095-8.069-.19-8.354-.475-8.639-.759-8.829-.95-8.924-1.329-8.734-1.709-8.544-1.898-8.259-2.279-7.975-2.563-7.405-2.848-6.835-3.038-6.171-3.323-5.411-3.512-4.747-3.608-3.132-3.702-1.899-3.702-1.234-3.798-1.045-3.797-.949-3.798-.759-3.797-.76-3.892-.759-3.988-.95-3.987-.759-3.987-.665-4.082-.949-8.165-.57-8.354-.189-4.082-.285-4.272-.38-8.544-.285-4.367-.285-4.462-.569-4.557-.57-4.652-.569-4.746-.475-4.747-.57-4.842-.664-4.936-.76-5.032-.759-5.221-.76-5.126-.474-5.222-.19-5.031.095-5.032.379-10.158v-5.221l.095-5.317V75.688l-.189-5.696-.38-5.981-.57-6.17-.664-6.361-.475-6.266-.19-6.17.38-5.792.474-5.886.285-5.98.57-12.342.19-6.266v-6.455l-.095-6.646-.475-7.025-.949-7.405-1.519-8.07-1.899-8.448-2.468-9.019-3.133-9.873-3.987-10.633-4.842-11.677-6.076-12.91-7.404-14.526-8.829-16.233m212.937 405.369l-6.645.854-4.557.475-5.316.569-5.981.38-6.551.38-7.215.19h-7.595l-8.069-.285-8.354-.475-8.544-.759-8.734-1.044-8.734-1.33-8.639-1.708-8.449-1.994-8.07-2.278-7.784-2.564-7.215-2.943-6.646-3.037-5.886-3.323-5.316-3.513-4.462-3.607-2.848-3.703-1.519-3.702-1.139-3.798-.854-3.702-.76-3.797-.664-3.798-1.14-7.784-.854-3.988-.57-3.987-.474-4.082-.38-3.987-.19-4.082-.19-8.165v-12.436l-.095-4.272v-4.272l-.19-4.367-.284-4.462-.475-4.557-.38-4.652-.285-4.651-.379-4.747-.475-4.842-.57-5.031-.664-5.032-.57-5.126-.379-5.127v-4.936l.189-5.032.285-4.936.285-5.032.19-5.126.095-5.222.19-5.316.19-10.917-.095-5.697-.38-5.98-.57-6.171-.759-6.456-.665-6.455-.285-6.36.76-11.962.285-6.076.569-12.626.285-6.456.095-6.55v-6.836l-.285-7.12-.759-7.595-1.139-8.069-1.614-8.544-1.994-9.114-2.658-9.778-3.418-10.633-4.367-11.677-5.316-12.91-6.645-14.431-8.07-16.138m199.077 405.559l-2.943.379-3.797.475-4.557.475-5.221.474-5.981.38-6.646.285-7.12.19-7.594-.095-7.975-.285-8.259-.475-8.544-.854-8.639-1.139-8.639-1.329-8.544-1.709-8.26-2.089-7.974-2.278-7.595-2.658-7.12-2.848-6.36-3.133-5.791-3.323-5.032-3.512-4.367-3.608-2.468-3.702-1.329-3.703-.95-3.702-.759-3.703-.57-3.797-.379-3.797-.95-7.785-.569-3.892-.38-3.988-.285-3.987-.095-3.987v-7.974l.19-3.988.57-12.246.189-4.177.19-8.544-.19-4.367-.284-4.557-.19-4.557-.095-4.557-.19-4.652-.285-4.746-.38-4.842-.949-10.063-.19-4.937.19-4.936.285-4.937.475-4.841.569-10.064.19-5.22.285-5.317.19-5.317.19-5.506-.095-5.696-.285-5.98-.57-6.171-.949-6.55-.76-6.646-.474-6.55.285-5.982.379-6.17.285-6.266.855-19.461.284-6.74.095-6.93-.095-7.216-.569-7.69-.855-8.164-1.234-8.639-1.614-9.114-2.278-9.873-2.848-10.632-3.703-11.582-4.746-12.911-5.981-14.336-7.215-16.043M772.95 273.815l-2.943.38-3.797.38-4.462.38-5.221.474-5.981.38-6.551.19-7.12.095-7.499-.095-7.975-.285-8.259-.569-8.449-.855-8.544-1.139-8.545-1.424-8.449-1.709-8.164-2.088-7.879-2.374-7.5-2.563-6.836-2.943-6.265-3.133-5.601-3.323-4.842-3.512-4.177-3.608-2.184-3.702-1.139-3.702-.759-3.703-.57-3.702-.475-3.798-.284-3.797-.19-3.797-.285-3.798-.38-3.987-.285-3.892-.095-3.893.095-3.987.285-3.892.285-3.987.759-7.975.475-3.987.38-3.987.285-4.177.379-4.083.285-4.272v-4.272l-.095-4.462v-4.462l.095-4.461v-4.557l-.095-4.652-.19-4.747-.284-4.841-.285-4.937v-4.937l.19-4.841.474-4.842.57-4.842.475-4.936.284-5.032.38-5.126.57-10.633.19-5.41v-5.697l-.285-5.98-.57-6.267-1.044-6.645-.949-6.74-.665-6.74.855-18.797.569-13.196.38-6.646.569-13.955v-7.31l-.189-7.785-.665-8.259-.854-8.639-1.235-9.114-1.803-9.873-2.374-10.632-3.132-11.677-4.178-12.816-5.221-14.336-6.55-15.949m172.02 405.844l-2.943.285-3.797.38-4.462.38-5.221.379-5.981.38-6.456.19-7.12.095-7.499-.19-7.88-.38-8.164-.569-8.355-.855-8.544-1.234-8.449-1.424-8.354-1.804-8.069-2.088-7.785-2.374-7.31-2.658-6.74-2.943-6.076-3.133-5.411-3.322-4.747-3.513-3.892-3.607-1.899-3.703-.949-3.607-.665-3.703-.475-3.797-.284-3.702-.285-11.393-.19-3.892-.095-3.892.19-3.892.285-3.893.474-3.892 1.14-7.785 1.329-7.784 1.139-7.975.57-4.082.379-4.177.57-12.911.285-4.462.19-4.462.094-4.557v-4.652l-.094-4.746v-4.842l.094-4.842.38-4.746.475-4.747.759-4.747.475-4.841.475-5.032.379-5.126.38-5.222.38-5.316.19-5.411.095-5.696-.285-5.981-.57-6.266-1.139-6.74-1.044-6.93-.855-6.836.19-6.265.285-6.36.285-6.551.19-6.74.379-6.646.38-6.835.76-14.146.284-7.5-.094-7.784-.285-8.354-.57-8.64-.949-9.208-1.329-9.873-1.899-10.632-2.563-11.677-3.513-12.817-4.652-14.335-5.791-15.854m158.73 405.844l-2.943.285-3.797.38-4.462.284-5.221.38-5.886.285-6.456.19h-7.025l-7.5-.19-7.879-.38-8.069-.664-8.355-.855-8.449-1.234-8.354-1.519-8.259-1.803-7.975-2.089-7.69-2.468-7.12-2.658-6.645-2.943-5.886-3.133-5.316-3.323-4.462-3.513-3.703-3.607-1.708-3.702-.76-3.703-.474-3.702-.38-3.703-.095-3.702v-3.798l.19-7.499v-3.893l.095-3.797.379-3.892.57-3.798.665-3.892.759-3.797.854-3.798.95-3.892.854-3.797.76-3.988.759-3.892.76-3.987.664-4.082.38-4.178 1.139-12.816.475-4.367.285-4.462.284-4.556.19-9.399.285-4.747.57-4.651.664-4.747.76-4.652.664-4.841.95-10.064.379-5.22.475-5.222.285-5.507v-5.6l-.19-5.981-.665-6.361-1.139-6.835-1.234-7.025-.949-6.93.095-6.456.284-6.456.38-13.48.38-6.836.474-6.93.95-14.335.38-7.595.189-7.88-.094-8.353-.19-8.734-.475-9.209-.949-9.873-1.424-10.633-2.089-11.677-2.943-12.816-3.987-14.24-5.032-15.854m145.535 405.844l-2.943.19-3.703.285-4.462.379-5.221.285-5.886.285-6.456.095h-6.93l-7.5-.19-7.784-.475-8.07-.664-8.259-.95-8.354-1.234-8.354-1.519-8.165-1.898-7.879-2.089-7.5-2.468-7.12-2.658-6.456-2.943-5.791-3.228-5.031-3.323-4.272-3.512-3.608-3.608-1.424-3.702-.664-3.703-.38-3.702-.19-3.703v-3.702l.19-3.702.19-3.798.285-3.702.285-3.893.379-3.797.57-3.797.759-3.798.95-3.702.949-3.797 1.139-3.798 1.045-3.702 1.139-3.798 1.044-3.892.949-3.892 1.045-3.893.759-3.987.665-4.082.474-4.177.57-4.177.664-4.177.665-4.272.475-4.367.474-4.462.38-4.557.285-4.652.475-4.652.664-4.556.76-4.652.854-4.652.759-4.842.57-4.936.475-5.032.569-5.126.475-5.221.285-5.507.095-5.696-.285-5.98-.665-6.361-1.234-6.836-1.329-7.12-1.044-7.12.095-6.55.19-6.55.095-6.836.284-6.835.38-7.025.475-7.025.569-7.215.665-7.31.475-7.595.474-7.974.19-8.355v-8.828l-.095-9.21-.474-9.872-1.045-10.728-1.519-11.677-2.373-12.816-3.323-14.24-4.367-15.759M766.97 263.373l-2.943.19-3.703.189-4.462.285-5.126.285-5.886.19-6.456.095h-6.93l-7.405-.285-7.784-.475-8.07-.664-8.164-1.044-8.354-1.235-8.26-1.613-8.069-1.804-7.785-2.184-7.404-2.468-6.931-2.658-6.36-3.038-5.601-3.133-4.842-3.418-4.177-3.512-3.323-3.608-1.329-3.702-.475-3.608-.189-3.702-.095-3.702.095-3.703.379-3.702.38-3.798.38-3.702.474-3.797.57-3.798.854-3.702 1.045-3.798 1.139-3.702 1.234-3.702 3.987-11.108 1.329-3.797 1.14-3.798 1.234-3.797 1.044-3.892.76-3.987.759-4.083.759-4.177.855-4.082.759-4.177.76-4.272.759-4.367.475-4.462.57-4.462.569-4.652.855-4.461.854-4.652.949-4.557.76-4.747.664-4.936.57-5.032.57-5.126.474-5.222.38-5.506.095-5.696-.285-5.98-.664-6.361-1.235-7.026-1.519-7.215-1.234-7.214.095-6.551.19-6.74.095-6.836.285-7.025.38-7.025.569-7.12.665-7.31.664-7.405.76-7.69.569-8.069.475-8.354.38-8.829.19-9.303-.095-9.874-.475-10.727-1.139-11.677-1.804-12.816-2.658-14.145-3.703-15.76M765.64 260.715l-2.943.189-3.702.19-4.367.285-5.126.19-5.886.19-6.361.095-6.93-.095-7.31-.285-7.785-.57-7.974-.664-8.165-1.044-8.259-1.329-8.164-1.519-7.975-1.899-7.784-2.184-7.31-2.468-6.835-2.753-6.171-3.038-5.506-3.133-4.747-3.417-4.082-3.513-3.133-3.607-1.139-3.703-.38-3.607-.095-3.703.095-3.702.285-3.703.38-3.702.569-3.703.665-3.797.664-3.702.855-3.703 1.044-3.702 1.234-3.703 1.424-3.702 1.424-3.608 1.614-3.702 1.519-3.608 1.519-3.702 1.519-3.607 1.519-3.798 1.329-3.702 1.234-3.798 1.044-3.987 1.899-7.974 2.089-8.165.949-4.177.949-4.272.76-4.367.664-4.367.76-4.462.949-4.462.949-4.556 1.045-4.652.759-4.652.76-4.936.664-5.032.57-5.126.474-5.222.38-5.506.095-5.696-.285-5.981-.664-6.456-1.424-7.025-1.614-7.31-1.234-7.31v-6.74l.19-6.74.095-6.93.284-7.12.475-7.12.57-7.216.759-7.31.855-7.5.949-7.784.854-8.07.665-8.448.759-8.83.57-9.303.285-9.873-.095-10.727-.57-11.677-1.329-12.817-2.088-14.145-2.943-15.759m106.99 405.274l-2.848.095-3.607.19-4.367.285-5.127.19-5.696.095h-6.36l-6.93-.095-7.215-.38-7.69-.475-7.975-.759-8.164-1.044-8.164-1.329-8.165-1.614-7.879-1.899-7.69-2.183-7.215-2.564-6.74-2.753-6.171-2.943-5.316-3.228-4.652-3.417-3.892-3.513-3.038-3.607-.949-3.608-.285-3.702.095-3.703.19-3.702.379-3.702.57-3.703.664-3.702.855-3.703.949-3.702 1.044-3.608 1.235-3.702 1.519-3.608 1.613-3.607 1.709-3.608 3.608-7.215 1.709-3.607 1.803-3.608 1.614-3.607 1.614-3.703 1.519-3.797 1.139-3.797 1.139-3.988 1.235-3.892 1.329-3.987 1.139-3.987 2.278-8.165 1.045-4.272.854-4.367.949-4.367 2.089-8.923 1.044-4.557.855-4.747.759-4.842.665-5.031.664-5.127.475-5.221.379-5.506.095-5.696-.284-6.076-.76-6.55-1.424-7.026-1.709-7.404-1.329-7.405v-6.74l.095-6.836.19-7.025.285-7.12.569-7.215.665-7.31.854-7.405 1.045-7.5 1.044-7.784 1.139-8.165.95-8.449 1.044-8.829.949-9.303.665-9.968.379-10.633-.094-11.677-.76-12.816-1.519-14.24-2.278-15.664m94.364 404.894l-2.848.095-3.607.19-4.272.095-5.032.19-5.791.095h-6.265l-6.836-.19-7.215-.38-7.689-.475-7.88-.854-8.069-1.044-8.165-1.329-8.069-1.614-7.88-1.994-7.499-2.183-7.215-2.564-6.646-2.753-5.981-2.943-5.221-3.227-4.557-3.418-3.702-3.513-2.943-3.607-.855-3.703-.095-3.607.19-3.703.285-3.702.57-3.702.759-3.608.76-3.702 1.044-3.703 1.139-3.702 1.234-3.608 1.519-3.702 1.709-3.513 1.804-3.607 3.987-7.025 1.994-3.608 1.993-3.512 1.899-3.513 1.899-3.607 1.803-3.608 1.709-3.702 1.424-3.798 1.329-3.797 1.424-3.797 1.519-3.893 1.329-3.987 1.424-3.987 1.329-3.988 1.14-4.177 1.139-4.272 1.139-4.367 1.139-4.272 1.139-4.462 1.045-4.556.949-4.747.759-4.842.76-4.936.57-5.127.569-5.316.285-5.506.095-5.791-.285-6.076-.854-6.55-1.519-7.215-1.709-7.405-1.329-7.405v-6.835l.095-6.93.19-7.026.379-7.215.57-7.215.854-7.31.95-7.5 1.139-7.594 1.329-7.785 1.234-8.164 1.329-8.45 1.329-8.828 1.235-9.399 1.139-9.873.759-10.728.38-11.676-.19-12.817-.949-14.145-1.614-15.759m81.833 404.61H758.9l-3.512.095-4.273.095-5.031.095-5.601.095h-6.266l-6.74-.285-7.215-.285-7.595-.665-7.879-.759-7.975-1.139-8.069-1.329-7.975-1.709-7.879-1.899-7.5-2.278-7.025-2.469-6.551-2.753-5.886-3.038-5.126-3.227-4.462-3.418-3.607-3.513-2.848-3.607-.665-3.702v-3.608l.285-3.702.474-3.703.665-3.607.854-3.703 1.045-3.702 1.234-3.608 1.329-3.607 1.424-3.703 1.709-3.512 1.898-3.608 4.178-7.025 2.183-3.417 2.183-3.513 2.279-3.513 2.088-3.417 2.089-3.608 2.089-3.512 1.803-3.608 1.709-3.702 1.519-3.703 1.709-3.797 1.614-3.797 1.614-3.893 1.519-3.892 1.613-3.987 1.33-3.987 1.329-4.178 1.329-4.272 1.234-4.272 1.234-4.462 1.139-4.462.95-4.746.759-4.842.76-4.936.664-5.127.57-5.316.284-5.506V57.08l-.284-6.171-.95-6.645-1.614-7.215-1.803-7.5-1.234-7.405-.095-6.93.379-14.146.38-7.215.665-7.215.949-7.404 1.139-7.5 1.329-7.69 1.424-7.785 1.519-8.164 1.614-8.449 1.614-8.829 1.614-9.398 1.519-9.874 1.234-10.727.854-11.677.38-12.816-.38-14.145-.949-15.759m66.549 404.135l-3.513.095-4.177.094h-4.936l-5.601.095-6.171-.095-6.741-.284-7.12-.38-7.594-.665-7.785-.759-7.974-1.139-7.975-1.424-7.879-1.614-7.785-1.994-7.405-2.278-6.93-2.563-6.551-2.754-5.791-3.037-4.936-3.228-4.272-3.323-3.513-3.607-2.753-3.608-.569-3.607.189-3.703.38-3.607.665-3.703.759-3.607 1.044-3.703 1.14-3.607 1.329-3.703 1.519-3.607 1.708-3.513 1.899-3.607 2.089-3.513 2.278-3.417 2.279-3.513 9.493-13.671 2.278-3.512 2.279-3.418 2.088-3.607 1.804-3.608 1.804-3.702 1.899-3.703 1.803-3.702 1.709-3.797 1.804-3.798 1.709-3.892 1.614-3.987 1.519-4.082 1.424-4.178 1.424-4.272 1.234-4.367 1.139-4.462 1.044-4.651.855-4.842.759-4.936.665-5.127.569-5.316.285-5.601.095-5.791-.475-6.266-.949-6.74-3.513-14.81-1.234-7.405-.095-6.93.095-7.12.285-7.12.475-7.31.759-7.31 1.044-7.405 1.235-7.5 1.519-7.69 1.613-7.879 1.804-8.164 1.899-8.45 1.994-8.828 1.898-9.304 1.899-9.968 1.709-10.728 1.329-11.677.854-12.816.285-14.145-.38-15.664m54.208 403.565h-3.513l-4.177.095h-10.348l-6.171-.095-6.645-.284-7.12-.38-7.405-.665-7.785-.854-7.879-1.139-7.88-1.424-7.879-1.709-7.595-1.994-7.31-2.278-6.93-2.468-6.361-2.849-5.696-3.037-4.841-3.228-4.177-3.418-3.418-3.512-2.563-3.608-.475-3.607.285-3.703.57-3.607.759-3.703.949-3.607 1.14-3.608 1.329-3.702 1.519-3.513 1.708-3.607 1.899-3.608 2.089-3.512 2.278-3.418 2.373-3.513 2.469-3.417 2.563-3.323 5.126-6.835 2.564-3.323 2.468-3.417 2.373-3.418 2.279-3.513 2.088-3.512 1.994-3.608 2.088-3.607 1.994-3.703 1.899-3.702 1.993-3.702 1.899-3.893 1.804-3.892 1.614-3.987 1.613-4.083 1.519-4.177 1.33-4.367 1.234-4.556 1.044-4.652.949-4.747.76-4.937.664-5.126.57-5.411.285-5.506v-5.886l-.475-6.266-1.044-6.835-1.899-7.31-1.804-7.595-1.139-7.405-.095-7.025.095-7.12.285-7.215.57-7.31.854-7.31 1.139-7.5 1.424-7.5 1.709-7.69 1.804-7.879 2.088-8.164 2.089-8.45 2.373-8.923 2.279-9.303 2.373-9.874 2.089-10.727 1.898-11.677 1.329-12.816.95-14.145.189-15.665m38.449 402.996l-4.082.095-4.747-.095h-5.506l-6.076-.19-6.55-.285-7.026-.474-7.404-.665-7.69-.854-7.785-1.139-7.879-1.424-7.785-1.709-7.5-1.994-7.215-2.278-6.74-2.563-6.361-2.848-5.506-3.038-4.841-3.228-3.988-3.323-3.228-3.607-2.563-3.608-.379-3.607.474-3.608.665-3.702.949-3.608 1.044-3.607 1.329-3.608 1.424-3.607 1.709-3.608 1.899-3.512 1.994-3.513 2.278-3.512 2.373-3.418 2.564-3.418 2.658-3.417 2.753-3.323 2.658-3.323 2.753-3.417 2.753-3.323 2.658-3.323 2.564-3.322 2.468-3.418 2.278-3.513 2.184-3.512 2.278-3.608 2.184-3.512 2.088-3.703 2.184-3.702 2.088-3.703 3.798-7.784 1.614-4.082 1.613-4.177 1.424-4.272 1.235-4.557 1.139-4.557.949-4.842.855-4.936.759-5.127.475-5.316.284-5.601v-5.981l-.569-6.266-1.234-6.93-1.899-7.405-1.804-7.595-1.139-7.404-.095-7.12.19-7.12.38-7.216.664-7.31.95-7.405 1.234-7.404 1.519-7.595 1.898-7.69 2.089-7.974 2.278-8.07 2.469-8.544 2.658-8.829 2.658-9.303 2.753-9.873 2.563-10.728 2.374-11.677 1.898-12.816 1.519-14.145.855-15.664m26.296 402.426h-8.733l-5.317-.095-5.981-.19-6.55-.38-6.93-.474-7.31-.665-7.595-.949-7.785-1.139-7.689-1.519-7.69-1.709-7.5-1.994-7.025-2.278-6.74-2.563-6.171-2.754-5.506-3.037-4.652-3.228-3.892-3.418-3.228-3.512-2.373-3.608-.38-3.607.57-3.703.854-3.607 1.139-3.608 1.234-3.607 1.424-3.608 1.614-3.607 1.899-3.513 1.994-3.512 2.183-3.513 2.373-3.418 2.564-3.417 2.753-3.323 2.753-3.418 5.696-6.645 2.943-3.228 2.848-3.322 2.848-3.228 2.753-3.323 2.658-3.418 2.468-3.417 2.374-3.513 2.373-3.417 2.468-3.513 2.279-3.607 2.183-3.703 2.279-3.607 2.088-3.798 1.994-3.892 1.804-4.082 1.708-4.082 1.424-4.272 1.33-4.462 1.139-4.652 1.044-4.747.854-5.031.76-5.127.57-5.316.189-5.601v-5.98l-.664-6.456-1.329-6.93-1.994-7.5-1.804-7.594-.949-7.31-.095-7.12.285-7.12.38-7.31.759-7.31 1.139-7.405 1.329-7.405 1.709-7.595 2.089-7.69 2.278-7.974 2.563-8.07 2.754-8.449 3.037-8.828 3.038-9.304 3.133-9.968 3.038-10.728 2.848-11.676 2.468-12.817 2.089-14.05 1.519-15.664m14.145 401.762l-3.987-.095-4.652-.095-5.221-.095-5.886-.285-6.456-.285-6.835-.569-7.31-.665-7.405-.949-7.69-1.234-7.689-1.424-7.595-1.804-7.31-1.994-7.025-2.278-6.55-2.563-6.076-2.848-5.411-3.038-4.557-3.133-3.798-3.418-3.133-3.512-2.278-3.608-.38-3.607.76-3.608.949-3.607 1.234-3.608 1.424-3.607 1.614-3.608 1.804-3.512 1.994-3.513 2.278-3.513 2.278-3.417 2.564-3.418 2.753-3.417 2.753-3.323 5.886-6.646 9.113-9.683 3.038-3.323 2.943-3.227 2.753-3.323 2.659-3.323 5.126-6.835 2.563-3.513 2.374-3.512 2.468-3.608 2.373-3.607 2.184-3.797 2.088-3.798 1.899-3.987 1.709-4.177 1.519-4.272 1.329-4.462 1.234-4.557 1.044-4.747.95-5.031.759-5.127.475-5.41.284-5.602-.094-6.076-.76-6.455-1.424-7.026-2.088-7.5-1.709-7.594-.855-7.31v-7.12l.285-7.12.57-7.31.854-7.31 1.234-7.405 1.519-7.5 1.899-7.5 2.278-7.69 2.563-7.879 2.848-8.164 3.133-8.45 3.323-8.828 3.418-9.303 3.607-9.874 3.418-10.727 3.323-11.677 3.037-12.816 2.659-14.146 2.088-15.664m-1.804 401.002l-4.556-.094-5.222-.19-5.791-.285-6.36-.38-6.741-.569-7.12-.76-7.405-.949-7.594-1.234-7.595-1.424-7.405-1.804-7.31-1.994-6.835-2.278-6.456-2.563-5.981-2.849-5.316-3.037-4.462-3.133-3.702-3.418-3.038-3.512-2.184-3.608-.284-3.607.759-3.608 1.234-3.607 1.424-3.513 1.614-3.608 1.709-3.512 1.994-3.513 2.183-3.512 2.373-3.513 2.469-3.417 2.658-3.323 2.848-3.418 2.943-3.227 3.038-3.323 15.664-16.139 3.133-3.133 2.943-3.323 2.848-3.322 2.753-3.323 2.658-3.418 2.753-3.322 2.468-3.513 2.563-3.607 2.469-3.608 2.278-3.702 2.184-3.798 1.993-3.987 1.804-4.082 1.519-4.272 1.424-4.462 1.234-4.557 1.044-4.746.95-5.032.759-5.126.475-5.412.19-5.79-.19-6.076-.855-6.456-1.518-7.12-2.184-7.595-1.614-7.595-.664-7.215v-7.12l.379-7.215.665-7.215 1.044-7.31 1.424-7.404 1.709-7.5 2.089-7.5 2.563-7.69 2.848-7.88 3.133-8.069 3.417-8.354 7.595-18.132 3.987-9.873 3.893-10.728 3.797-11.677 3.512-12.816 3.228-14.05 2.848-15.759m-18.322 400.052l-5.126-.19-5.696-.284-6.171-.38-6.741-.665-7.025-.759-7.215-.949-7.5-1.235-7.499-1.518-7.31-1.709-7.12-2.089-6.836-2.278-6.36-2.564-5.791-2.753-5.127-3.037-4.461-3.228-3.608-3.323-2.848-3.513-2.089-3.607-.379-3.608.949-3.607 1.424-3.513 1.614-3.607 1.804-3.513 1.898-3.512 2.089-3.513 2.373-3.417 2.469-3.418 2.658-3.418 5.696-6.645 3.133-3.323 6.265-6.455 3.228-3.228 3.323-3.133 3.228-3.228 6.455-6.265 3.133-3.228 2.943-3.323 2.848-3.322 2.943-3.323 2.848-3.323 2.563-3.512 2.658-3.513 2.563-3.513 2.374-3.702 2.183-3.797 2.089-3.988 1.804-4.082 1.613-4.272 1.424-4.462 1.235-4.557 1.044-4.841.949-4.937.76-5.221.474-5.411.095-5.791-.379-6.171-.95-6.645-1.709-7.216-2.183-7.594-1.519-7.5-.475-7.215.095-7.215.475-7.12.759-7.215 1.234-7.31 1.519-7.31 1.994-7.5 2.279-7.5 2.848-7.594 3.132-7.785 3.513-8.07 3.797-8.353 4.082-8.734 4.272-9.304 4.367-9.873 4.367-10.728 4.367-11.677 4.083-12.721 3.892-14.145 3.418-15.759m-30.095 399.293l-5.031-.285-5.506-.284-6.171-.475-6.551-.57-6.93-.759-7.215-1.044-7.31-1.235-7.405-1.519-7.215-1.803-7.025-1.994-6.645-2.373-6.171-2.564-5.696-2.753-5.031-3.038-4.272-3.132-3.513-3.418-2.848-3.418-1.899-3.607-.284-3.608 1.044-3.512 1.614-3.608 1.803-3.512 1.899-3.513 2.184-3.417 2.278-3.513 2.468-3.418 2.658-3.322 2.754-3.418 2.943-3.323 2.943-3.227 3.132-3.323 3.228-3.228 3.323-3.133 3.228-3.227 13.29-12.532 3.228-3.228 6.076-6.455 3.038-3.323 2.943-3.322 2.658-3.418 2.753-3.513 2.658-3.512 2.374-3.703 2.278-3.797 2.088-3.987 1.804-4.083 1.614-4.271 1.424-4.462 1.234-4.557 1.14-4.842.854-5.031.664-5.222.38-5.506v-5.886l-.569-6.266-1.045-6.74-1.803-7.215-2.184-7.595-1.329-7.5-.38-7.214.285-7.12.57-7.12.949-7.215L722.92-22l1.804-7.31 2.183-7.404 2.658-7.5 3.038-7.5 3.513-7.785 3.892-7.974 4.177-8.354 9.209-17.848 4.842-9.873 4.841-10.728 4.842-11.677 4.652-12.721 4.367-14.145 4.082-15.759m-46.708 398.154l-5.411-.38-6.076-.474-6.455-.665-6.741-.759-7.12-1.045-7.215-1.234-7.215-1.519-7.12-1.803-6.93-2.089-6.456-2.278-6.075-2.564-5.602-2.753-4.841-3.038-4.177-3.132-3.418-3.418-2.658-3.418-1.804-3.512-.285-3.608 1.14-3.512 1.803-3.513 1.994-3.512 2.183-3.513 4.747-6.835 2.658-3.418 2.753-3.323 2.848-3.322 3.038-3.323 6.266-6.456 3.228-3.227 6.645-6.266 3.418-3.133 3.322-3.133 3.418-3.132 3.323-3.133 6.55-6.361 3.133-3.228 3.038-3.322 3.038-3.228 2.848-3.418 2.753-3.512 2.658-3.513 2.468-3.702 2.279-3.798 2.088-3.892 1.804-4.082 1.614-4.367 1.424-4.462 1.234-4.652 1.045-4.841.854-5.032.57-5.316.284-5.601-.19-5.981-.664-6.36-1.234-6.741-1.899-7.31-1.994-7.595-1.234-7.405-.19-7.215.38-7.025.76-7.12 1.139-7.215 1.614-7.12 2.088-7.31 2.469-7.31 2.943-7.31 3.417-7.5 3.892-7.69 4.273-7.974 4.556-8.259 4.937-8.639 5.126-9.209 5.317-9.778 5.411-10.727 5.316-11.582 5.127-12.817 5.031-14.145 4.747-15.759m-58.385 397.3l-5.316-.475-5.886-.474-6.266-.665-6.74-.854-6.93-1.045-7.12-1.234-7.12-1.519-6.93-1.804-6.741-2.088-6.36-2.278-5.981-2.564-5.411-2.753-4.747-3.038-3.987-3.133-3.323-3.322-2.468-3.418-1.709-3.607-.19-3.513 1.234-3.513 1.899-3.512 2.278-3.418 2.374-3.417 2.468-3.418 2.658-3.418 2.753-3.322 2.848-3.323 3.038-3.323 3.038-3.227 3.133-3.228 3.228-3.228 6.645-6.266 3.418-3.132 3.322-3.133 10.253-9.399 3.323-3.133 3.228-3.132 6.455-6.456 3.038-3.323 5.696-6.835 2.658-3.512 2.469-3.703 2.278-3.797 2.089-3.988 1.898-4.082 1.519-4.367 1.424-4.462 1.139-4.651 1.045-4.937.759-5.126.57-5.317.19-5.696-.38-5.98-.855-6.456-1.329-6.93-1.993-7.31-1.899-7.595-.949-7.31v-7.12l.474-7.025.95-7.12 1.424-7.12 1.804-7.12 2.373-7.12 2.753-7.215 3.323-7.31 3.797-7.5 4.177-7.595 4.652-7.88 5.031-8.164 5.317-8.544 5.601-9.208 5.791-9.779 5.886-10.632 5.886-11.677 5.696-12.816 5.696-14.146 5.316-15.759m-75.093 395.971l-5.791-.57-6.171-.664-6.55-.855-6.835-1.139-6.93-1.234-7.026-1.519-6.835-1.804-6.55-2.088-6.171-2.279-5.791-2.563-5.221-2.753-4.652-3.038-3.892-3.133-3.133-3.322-2.374-3.418-1.614-3.418-.189-3.607 1.329-3.418 2.088-3.512 2.468-3.418 2.564-3.418 5.506-6.645 5.886-6.645 6.265-6.456 3.228-3.228 3.228-3.132 3.323-3.133 3.417-3.133 3.323-3.133 3.418-3.133 3.322-3.133 3.418-3.038 3.513-3.132 6.645-6.266 6.455-6.455 3.133-3.228 2.943-3.418 2.753-3.418 2.753-3.607 2.374-3.703 2.278-3.797 1.994-3.987 1.899-4.177 1.518-4.272 1.33-4.557 1.139-4.747.949-4.936.76-5.127.379-5.411v-5.791l-.474-6.17-.95-6.551-1.519-6.93-1.898-7.405-1.804-7.5-.665-7.215.19-7.025.76-6.93 1.139-7.025 1.614-7.026 2.183-7.12 2.658-7.025 3.038-7.12 3.703-7.31 4.082-7.31 4.652-7.5 5.031-7.784 5.412-8.165 5.79-8.544 6.076-9.113 6.266-9.779 6.361-10.632 6.36-11.677 6.361-12.816 6.17-14.145 6.076-15.854m-86.58 395.021l-5.601-.57-5.981-.664-6.455-.95-6.646-1.044-6.835-1.329-6.835-1.519-6.646-1.804-6.36-2.088-6.076-2.279-5.601-2.563-5.127-2.753-4.367-2.943-3.797-3.133-3.038-3.322-2.278-3.323-1.424-3.513-.19-3.512 1.329-3.418 2.183-3.513 2.754-3.322 2.753-3.418 2.848-3.323 3.038-3.227 3.037-3.323 6.266-6.456 9.778-9.493 3.418-3.133 3.418-3.038 6.645-6.265 3.418-3.133 3.417-3.038 3.418-3.133 9.968-9.398 3.228-3.228 3.133-3.323 5.696-6.835 2.658-3.608 2.373-3.702 2.184-3.892 1.993-3.988 1.804-4.177 1.519-4.367 1.329-4.556 1.044-4.747.855-5.032.664-5.221.285-5.506-.095-5.791-.569-6.266-1.14-6.55-1.614-7.026-1.803-7.404-1.614-7.405-.475-7.12.475-7.025.854-6.93 1.424-6.93 1.899-6.931 2.468-6.93 2.943-7.025 3.513-7.026 3.987-7.215 4.557-7.215 4.936-7.5 5.507-7.689 12.056-16.519 6.551-9.113 6.835-9.778 6.835-10.633 6.93-11.582 6.836-12.911 6.835-14.145 6.645-15.854M723.015 218.089l-5.886-.664-6.266-.95-6.455-1.139-6.646-1.329-6.74-1.519-6.455-1.804-6.266-2.088-5.886-2.279-5.411-2.563-4.937-2.658-4.272-2.943-3.607-3.133-2.943-3.228-2.089-3.417-1.424-3.418-.095-3.513 1.329-3.417 2.279-3.418 5.886-6.645 3.132-3.323 3.133-3.228 6.456-6.455 3.228-3.133 9.968-9.399 3.417-3.132 3.418-3.038 6.645-6.266 3.418-3.038 3.323-3.133 3.417-3.038 3.323-3.132 3.323-3.228 3.322-3.133 3.133-3.228 3.133-3.322 2.848-3.418 2.753-3.418 2.658-3.607 2.279-3.797 2.088-3.893 1.994-3.987 1.804-4.272 1.519-4.367 1.234-4.652 1.044-4.746.759-5.032.57-5.316.19-5.601-.285-5.886-.664-6.266-1.235-6.74-1.613-7.026-1.804-7.31-1.329-7.31-.19-7.12.664-6.835 1.14-6.835 1.708-6.93 2.184-6.835 2.753-6.836 3.323-6.93 3.797-6.93 4.367-7.12 4.937-7.12 5.411-7.405 5.886-7.595 6.36-8.07 6.646-8.448 7.025-9.019 7.31-9.683 7.31-10.633 7.405-11.677 7.405-12.911 7.404-14.24 7.215-15.854M723.3 215.526l-5.696-.855-6.076-.854-6.361-1.139-6.455-1.329-6.551-1.614-6.36-1.804-5.981-1.993-5.791-2.374-5.221-2.468-4.747-2.753-4.177-2.943-3.418-3.038-2.848-3.228-1.994-3.323-1.234-3.417-.095-3.418 1.329-3.417 2.374-3.418 3.038-3.323 3.133-3.228 3.322-3.322 3.323-3.133 3.323-3.228 3.417-3.133 3.323-3.132 3.418-3.133 3.322-3.133 3.418-3.038 3.418-3.133 3.417-3.038 3.323-3.038 6.645-6.265 3.323-3.038 3.228-3.133 6.645-6.266 3.228-3.227 3.133-3.228 3.133-3.323 2.753-3.418 2.753-3.512 2.468-3.608 2.278-3.797 1.994-3.987 1.994-4.082 1.708-4.178 1.424-4.461 1.235-4.652.949-4.842.665-5.126.474-5.317.095-5.6-.38-5.982-.759-6.36-1.329-6.74-1.709-7.12-1.614-7.31-1.044-7.215.095-6.93.854-6.836 1.424-6.74L744.755-22l2.563-6.74 3.038-6.835 3.702-6.74 4.178-6.93 4.746-6.93 5.317-7.121 5.886-7.215 6.265-7.595 6.835-7.974 7.215-8.354 7.5-9.019 7.785-9.683 7.879-10.633 7.975-11.582 7.879-12.911 7.975-14.335 7.784-15.949M718.078 212.108l-5.886-.949-6.17-1.139-6.266-1.424-6.36-1.519-6.171-1.804-5.886-2.089-5.506-2.278-5.127-2.468-4.557-2.753-3.987-2.848-3.323-3.133-2.753-3.133-1.898-3.323-1.045-3.417-.095-3.418 1.33-3.323 2.373-3.417 3.133-3.228 10.253-9.683 7.025-6.266 3.417-3.038 3.418-3.133 6.835-6.076 3.513-3.132 3.417-3.038 3.323-3.038 6.551-6.171 3.227-3.133 3.323-3.038 3.228-3.133 3.228-3.227 3.227-3.133 6.076-6.645 2.753-3.418 2.563-3.608 2.469-3.702 2.183-3.797 1.899-3.988 1.899-4.082 1.708-4.272 1.33-4.462 1.139-4.746.854-4.937.57-5.127.379-5.41v-5.697l-.474-6.076-.95-6.36-1.329-6.835-1.614-7.026-1.424-7.215-.759-7.12.38-6.835 1.139-6.74 1.614-6.74 2.278-6.74 2.848-6.646 3.418-6.646 3.987-6.74 4.652-6.74 5.126-6.836 5.791-7.025 6.266-7.215 6.74-7.5 7.31-7.88 7.595-8.353 7.974-8.924 8.355-9.683 8.449-10.538 8.544-11.677 8.354-13.006 8.544-14.335 8.354-15.949M712.952 208.501l-5.981-1.234-6.076-1.329-6.17-1.519-5.981-1.899-5.696-1.994-5.412-2.278-4.841-2.468-4.462-2.754-3.798-2.848-3.227-3.037-2.563-3.133-1.804-3.323-1.045-3.323-.094-3.417 1.329-3.323 2.373-3.323 3.228-3.322 3.607-3.133 3.513-3.228 3.607-3.133 3.608-3.038 3.607-3.133 10.538-9.113 3.418-3.038 3.512-3.038 3.418-3.038 3.323-3.038 3.227-3.133 3.228-3.038 9.683-9.398 6.361-6.361 5.886-6.645 2.658-3.513 2.563-3.607 2.279-3.703 2.088-3.892 1.899-3.987 1.804-4.177 1.519-4.367 1.329-4.462 1.044-4.747.759-5.031.475-5.222.19-5.41-.095-5.792-.57-6.076-.949-6.455-1.424-6.835-1.424-7.026-1.234-7.12-.38-7.025.665-6.74 1.329-6.646 1.993-6.645 2.564-6.645 3.132-6.55 3.798-6.551 4.367-6.55 5.031-6.741 5.601-6.74 6.171-6.93 6.646-7.12 7.215-7.406 7.784-7.784 8.07-8.354 8.544-8.924 8.829-9.589 9.018-10.632 9.019-11.677 8.924-13.006 9.019-14.43 8.923-16.044m-158.54 387.522l-5.791-1.235-5.981-1.329-5.885-1.614-5.791-1.803-5.602-1.994-5.126-2.278-4.747-2.469-4.272-2.658-3.702-2.848-3.133-3.038-2.468-3.133-1.709-3.227-.949-3.323v-3.323l1.234-3.417 2.373-3.228 3.228-3.323 7.405-6.265 3.797-3.133 7.405-6.076 7.215-6.076 3.512-3.038 3.418-2.943 3.513-3.038 3.417-3.038 6.646-6.075 6.36-6.171 6.266-6.266 6.266-6.455 2.848-3.323 2.848-3.418 2.563-3.512 2.373-3.608 2.279-3.797 1.993-3.892 1.804-4.082 1.709-4.178 1.424-4.366 1.234-4.557 1.044-4.842.665-5.032.285-5.22.095-5.602-.19-5.791-.665-6.17-1.044-6.551-1.329-6.74-1.234-7.026-.95-7.025-.095-6.835.95-6.645 1.708-6.55 2.279-6.551 2.848-6.55 3.513-6.456 4.177-6.456 4.746-6.455 5.412-6.55 5.98-6.646 6.551-6.836 7.215-7.12 7.595-7.404 8.164-7.69 8.639-8.26 9.019-8.923 9.303-9.683 9.494-10.538 9.493-11.772 9.494-13.006 9.588-14.43 9.303-16.234M709.25 201.95l-5.697-1.329-5.696-1.614-5.696-1.803-5.316-1.994-5.031-2.278-4.557-2.469-4.083-2.658-3.607-2.848-3.038-2.943-2.373-3.133-1.614-3.133-.855-3.322v-3.323l1.14-3.323 2.373-3.227 3.323-3.228 7.594-6.266 3.893-3.038 7.594-6.076 3.703-3.037 3.607-2.943 3.513-3.038 3.607-2.943 3.513-2.943 3.418-3.038 3.322-3.038 3.228-3.038 3.133-3.038 3.133-3.133 9.208-9.493 3.038-3.323 2.848-3.322 2.659-3.418 2.468-3.608 2.373-3.607 2.089-3.797 1.898-3.988 1.709-4.082 1.709-4.272 1.329-4.462 1.234-4.557.855-4.841.569-5.127.19-5.316v-5.601l-.38-5.886-.664-6.266-1.044-6.455-1.235-6.836-1.044-6.835-.664-6.93.284-6.835 1.235-6.456 1.993-6.55 2.563-6.36 3.133-6.456 3.893-6.361 4.556-6.36 5.127-6.361 5.886-6.456 6.36-6.55 7.025-6.74 7.595-7.026 8.07-7.31 8.639-7.69 9.113-8.258 9.494-8.924 9.778-9.589 10.063-10.632 10.063-11.772 9.968-13.006 9.968-14.62 9.873-16.234M710.579 199.292l-5.507-1.329-5.506-1.614-5.411-1.804-5.221-1.993-4.842-2.279-4.462-2.468-3.987-2.563-3.418-2.848-2.943-2.943-2.278-3.038-1.519-3.133-.855-3.228v-3.322l1.14-3.323 2.278-3.228 3.228-3.228 3.892-3.037 3.987-3.133 3.988-3.038 3.892-2.943 3.892-3.038 7.405-5.886 3.608-3.038 7.025-5.886 3.417-3.038 3.323-2.943 3.228-3.038 3.133-3.132 6.075-6.266 5.981-6.361 2.943-3.322 2.753-3.323 2.564-3.513 2.468-3.607 2.183-3.703 1.994-3.797 1.804-4.082 1.708-4.082 1.519-4.272 1.33-4.462 1.139-4.652.759-4.937.475-5.126.19-5.411-.19-5.696-.38-5.886-.759-6.266-1.045-6.455-1.044-6.74-.854-6.836-.285-6.835.664-6.646 1.614-6.36 2.279-6.36 2.848-6.361 3.512-6.361 4.272-6.17 4.937-6.266 5.601-6.361 6.266-6.266 6.835-6.55 7.405-6.645 7.974-6.93 17.658-14.905 9.588-8.26 9.969-8.829 10.252-9.683 10.538-10.632 10.538-11.772 10.443-13.196 10.442-14.62 10.253-16.329M706.686 195.305l-5.316-1.614-5.221-1.804-5.032-1.993-4.747-2.184-4.272-2.468-3.892-2.563-3.323-2.753-2.848-2.943-2.183-3.038-1.519-3.133-.665-3.228v-3.228l1.045-3.322 2.183-3.228 3.228-3.133 3.892-3.038 8.164-6.076 3.988-2.943 3.987-3.038 3.797-2.942 3.703-2.943 3.607-2.943 7.025-5.886 3.418-2.943 3.323-3.038 6.265-6.076 2.943-3.133 2.943-3.228 2.943-3.132 2.943-3.323 2.848-3.228 2.658-3.418 2.469-3.512 2.278-3.608 2.184-3.797 1.898-3.892 1.804-3.987 1.519-4.178 1.519-4.367 1.329-4.462.949-4.746.76-4.937.38-5.126.094-5.506-.284-5.696-.475-5.981-.759-6.266-.855-6.456-.854-6.645-.57-6.74.095-6.646 1.044-6.55 1.899-6.266 2.563-6.265 3.228-6.266 3.892-6.17 4.652-6.172 5.316-6.17 5.981-6.17 6.646-6.267 7.31-6.36 7.879-6.645 8.449-6.836 18.512-14.81 10.064-8.259 10.442-8.829 10.728-9.683 11.012-10.633 11.013-11.866 10.917-13.196 10.823-14.81 10.537-16.424M703.174 191.033l-5.032-1.709-4.841-2.089-4.557-2.183-4.177-2.373-3.798-2.564-3.228-2.753-2.753-2.848-2.183-3.038-1.329-3.132-.76-3.133.095-3.228 1.045-3.228 2.088-3.228 3.133-3.132 3.892-3.038 4.177-3.038 4.083-2.943 4.177-2.943 3.987-2.943 3.797-2.943 3.703-2.943 7.215-5.886 3.512-2.943 3.323-2.943 3.323-3.038 3.132-3.038 3.038-3.038 2.943-3.132 5.696-6.456 2.943-3.228 2.658-3.322 2.564-3.513 2.468-3.512 2.183-3.608 2.089-3.797 1.899-3.988 1.614-3.987 1.519-4.272 1.424-4.367 1.234-4.462.949-4.746.665-5.032.284-5.221v-5.507l-.379-5.79-.475-5.981-.665-6.171-.664-6.456-.57-6.55-.285-6.645.475-6.55 1.424-6.362 2.184-6.17 2.943-6.171 3.512-6.17 4.367-6.077 4.937-5.98 5.791-6.076 6.36-6.076 7.12-6.17 7.785-6.361 8.259-6.456 8.924-6.835 9.399-7.12 10.063-7.69 10.442-8.164 10.918-8.829 11.202-9.778 11.392-10.633 11.487-11.962 11.297-13.29 11.203-14.905 10.822-16.613M705.072 188.47l-4.841-1.804-4.747-1.994-4.367-2.183-4.082-2.374-3.608-2.563-3.227-2.658-2.658-2.848-1.994-3.038-1.424-3.038-.57-3.133v-3.227l.95-3.133 2.088-3.228 3.038-3.133 3.797-3.038 4.177-3.038 4.273-2.943 4.177-2.943 3.987-2.848 3.892-2.943 3.703-2.942 3.607-2.848 7.025-5.886 3.323-2.943 3.228-3.038 3.133-3.038 3.037-3.133 5.696-6.266 2.849-3.227 2.848-3.323 2.658-3.323 4.746-7.025 2.184-3.702 1.994-3.893 1.803-3.892 1.614-4.082 1.519-4.272 1.329-4.367 1.139-4.557.855-4.842.569-5.031.285-5.222-.19-5.6-.379-5.792-.475-5.98-.475-6.171-.474-6.36-.285-6.456.095-6.456.854-6.455 1.804-6.171 2.563-6.17 3.228-6.077 3.987-5.98 4.652-5.981 5.411-5.886 6.171-5.981 6.835-5.981 7.595-6.076 8.069-6.17 8.829-6.456 9.304-6.835 20.411-14.715 10.822-8.164 11.392-8.924 11.582-9.684 11.867-10.822 11.867-11.962 11.677-13.48 11.392-14.905 11.012-16.803M702.224 184.103l-4.462-1.994-4.272-2.183-3.987-2.279-3.512-2.563-3.133-2.658-2.563-2.848-1.994-2.943-1.234-3.038-.665-3.133.095-3.133.855-3.228 1.898-3.132 2.943-3.133 3.798-3.038 4.177-2.943 4.272-2.943 4.177-2.943 4.082-2.848 3.892-2.943 3.703-2.848 3.607-2.943 3.513-2.943 3.417-2.943 3.323-2.943 3.228-3.038 6.076-6.076 2.848-3.132 2.848-3.228 2.753-3.228 2.753-3.323 2.658-3.322 2.373-3.513 2.279-3.607 2.088-3.703 1.899-3.892 1.804-3.987 1.519-4.082 1.519-4.273 1.234-4.462 1.139-4.556.76-4.842.474-5.032.19-5.41-.19-5.507-.379-5.886-.76-12.056-.19-6.266v-6.36l.57-6.361 1.234-6.266 2.183-6.076 2.943-5.98 3.608-5.982 4.367-5.885 5.031-5.886 5.791-5.791 6.551-5.886 7.31-5.886 7.974-5.981 8.544-6.17 29.335-20.222 10.822-7.594 11.393-8.165 11.677-8.924 12.056-9.778 12.152-10.917 12.341-12.057 11.867-13.481 11.677-15.189 11.107-16.803M699.851 179.546l-4.082-2.089-3.892-2.373-3.418-2.468-3.038-2.659-2.563-2.753-1.899-2.943-1.329-3.038-.57-3.037.095-3.133.855-3.133 1.804-3.228 2.753-3.038 3.702-3.038 4.082-2.943 8.544-5.885 4.177-2.849 3.893-2.848 3.702-2.943 3.608-2.942 3.512-2.849 3.418-2.942 3.228-3.038 3.227-2.943 3.038-3.038 5.886-6.266 5.506-6.455 2.753-3.323 2.564-3.418 2.278-3.512 2.279-3.608 1.993-3.797 1.899-3.797 1.709-3.988 1.519-4.177 1.424-4.367 1.234-4.367.949-4.652.76-4.936.379-5.127.095-5.316-.19-5.601-.379-5.791-.285-5.98-.095-6.077v-6.17l.475-6.266.949-6.17 1.709-6.077 2.563-5.98 3.323-5.886 3.987-5.791 4.747-5.791 5.411-5.791 6.265-5.696 6.931-5.791 7.784-5.791 8.355-5.886 9.018-6.076 9.684-6.36 10.252-6.646 10.633-7.12 11.297-7.595 11.772-8.164 12.152-9.019 12.341-9.873 12.531-10.918 12.627-12.151 12.151-13.671 11.772-15.284 11.297-16.993M702.034 177.077l-3.987-2.183-3.797-2.278-3.418-2.469-2.943-2.658-2.563-2.753-1.899-2.848-1.234-2.943-.569-3.133v-3.038l.854-3.132 1.614-3.133 2.658-3.133 3.513-3.038 4.082-2.943 4.272-2.943 4.272-2.848 4.177-2.848 3.892-2.848 3.798-2.943 3.607-2.943 3.418-2.848 3.417-2.943 3.323-3.038 3.133-2.943 3.038-3.038 2.943-3.133 2.848-3.132 2.848-3.228 2.658-3.323 2.753-3.323 2.468-3.417 2.279-3.513 2.183-3.607 1.994-3.798 1.899-3.892 1.613-3.987 1.519-4.272 1.33-4.272 1.139-4.557.949-4.652.665-4.842.284-5.22.095-5.412-.19-5.601-.284-5.791-.095-5.886.095-5.981.474-6.076.76-6.076 1.424-6.075 2.183-5.886 2.943-5.886 3.703-5.696 4.462-5.696 5.126-5.696 5.886-5.602 6.645-5.695 7.405-5.602 8.165-5.696 8.923-5.886 9.399-5.98 10.063-6.266 10.728-6.645 11.107-7.12 11.677-7.595 12.151-8.26 12.437-9.018 12.721-9.968 12.816-11.013 12.816-12.341 12.342-13.766 11.961-15.379 11.297-17.183M700.326 172.426l-3.703-2.279-3.417-2.373-2.943-2.658-2.469-2.753-1.898-2.848-1.234-2.943-.665-3.038v-3.038l.665-3.133 1.518-3.133 2.469-3.038 3.417-3.038 3.988-2.942 4.177-2.943 4.367-2.848 4.177-2.848 3.987-2.943 3.702-2.848 3.608-2.943 3.513-2.848 3.322-2.943 3.323-3.038 3.133-3.038 3.038-3.038 2.943-3.133 2.848-3.133 5.506-6.455 2.658-3.418 2.468-3.418 2.279-3.512 2.088-3.703 1.994-3.797 1.804-3.892 1.614-4.082 1.518-4.178 1.235-4.367 1.139-4.556.854-4.652.57-5.032.285-5.126.095-5.411-.19-11.297.095-5.886.474-5.886.76-5.886 1.234-5.981 1.804-5.886 2.658-5.791 3.512-5.696 4.083-5.601 4.841-5.601 5.601-5.601 6.266-5.507 7.12-5.506 7.88-5.506 8.639-5.601 9.303-5.791 9.873-5.98 21.55-12.817 11.487-7.12 12.057-7.69 12.531-8.259 12.817-9.114 13.005-10.063 13.007-11.107 13.006-12.436 12.436-13.956 11.962-15.569 11.297-17.183m-288.41 365.022l-3.323-2.468-2.943-2.564-2.468-2.658-1.899-2.848-1.329-2.943-.665-3.038-.095-3.038.665-3.132 1.329-3.038 2.278-3.133 3.228-2.943 3.798-3.038 4.082-2.943 4.367-2.848 4.177-2.848 3.987-2.848 3.797-2.848 3.608-2.943 3.418-2.943 3.322-2.943 3.228-2.943 3.133-3.038 3.038-3.133 2.943-3.132 2.848-3.133 2.753-3.228 2.753-3.323 2.563-3.322 2.468-3.513 2.184-3.513 2.183-3.702 1.899-3.797 1.804-3.988 1.614-4.082 1.424-4.177 1.234-4.462 1.044-4.557.855-4.746.569-4.937.285-5.126.19-5.412.19-11.202.379-5.79.76-5.792 1.234-5.79 1.709-5.792 2.278-5.696 3.133-5.696 3.892-5.506 4.557-5.506 5.317-5.506 5.98-5.412 6.836-5.41 7.594-5.317 8.26-5.506 9.113-5.507 9.684-5.696 10.348-5.98 10.917-6.171 11.487-6.646 11.867-7.12 12.341-7.689 12.816-8.355 13.101-9.113 13.196-10.158 13.196-11.392 13.101-12.532 12.531-14.05 11.867-15.664 11.297-17.373M701.275 165.306l-3.228-2.374-2.943-2.563-2.468-2.658-1.899-2.753-1.329-2.943-.759-2.943-.095-3.038.475-3.133 1.234-3.038 2.088-3.133 3.038-3.037 3.608-2.943 3.892-2.943 4.272-2.848 4.177-2.848 3.987-2.943 3.798-2.848 3.607-2.943 3.418-2.943 3.323-2.943 3.227-2.943 3.038-3.038 3.038-3.133 2.943-3.133 2.848-3.133 2.753-3.322 2.658-3.228 2.563-3.418 2.469-3.512 2.183-3.608 2.089-3.702 1.898-3.798 1.804-3.987 1.614-4.082 1.329-4.272 1.234-4.462 1.045-4.557.759-4.746.665-4.937.379-5.221.285-5.317.285-5.506.38-5.601.759-5.696 1.139-5.601 1.614-5.696 2.184-5.601 2.848-5.601 3.607-5.412 4.367-5.506 5.032-5.316 5.696-5.317 6.55-5.316 7.215-5.316 8.07-5.222 8.734-5.41 9.493-5.412 10.158-5.696 10.823-5.886 11.297-6.17 11.867-6.646 12.246-7.12 12.626-7.69 13.101-8.449 13.386-9.304L947.06-128.8l13.196-11.488 13.29-12.721 12.437-14.24 11.867-15.759 11.2-17.563m-308.629 361.13l-2.848-2.468-2.469-2.659-1.993-2.753-1.329-2.943-.855-2.943-.19-3.037.38-3.038 1.044-3.038 1.899-3.133 2.753-3.038 3.323-2.943 3.797-2.943 4.082-2.943 4.177-2.848 3.893-2.848 3.797-2.943 3.608-2.943 3.417-2.943 3.323-2.943 3.228-3.038 6.076-6.075 2.848-3.228 2.848-3.133 2.753-3.323 2.658-3.322 2.563-3.418 2.278-3.513 2.184-3.607 2.088-3.703 1.899-3.892 1.709-3.987 1.614-4.082 1.424-4.272 1.139-4.462 1.044-4.652.855-4.747.664-4.936.57-5.127.475-5.316.664-5.411.665-5.506 1.044-5.507 1.614-5.506 2.183-5.506 2.658-5.506 3.418-5.411 4.082-5.317 4.842-5.316 5.411-5.221 6.266-5.222 6.93-5.126 7.69-5.127 8.544-5.221 9.208-5.316 9.969-5.317 10.537-5.6 11.108-5.887 11.771-6.17 12.152-6.646 12.531-7.215 13.006-7.784 13.291-8.545 13.481-9.303 13.385-10.538 13.291-11.582 13.196-12.816 12.436-14.43 11.77-15.949 11.11-17.563M700.041 155.717l-2.468-2.563-1.994-2.753-1.424-2.848-.949-2.943-.38-3.038.285-3.038.949-3.038 1.614-3.133 2.468-3.037 3.038-2.943 3.608-3.038 3.892-2.848 3.987-2.943 3.892-2.848 3.703-2.943 3.607-2.943 3.418-2.943 3.323-2.943 3.227-3.038 5.981-6.17 2.943-3.228 5.506-6.456 2.564-3.418 2.468-3.417 2.373-3.513 2.089-3.702 2.088-3.798 1.804-3.797 1.804-4.082 1.519-4.082 1.424-4.367 1.139-4.462 1.044-4.557 1.045-4.747.854-4.936 1.519-10.253.949-5.317 1.14-5.41 1.519-5.412 2.183-5.316 2.563-5.412 3.323-5.221 3.892-5.221 4.652-5.222 5.316-5.126 5.981-5.127 6.646-5.031 7.404-5.032 8.165-5.126 9.019-5.032 9.683-5.221 10.253-5.316 11.012-5.602 11.487-5.79 12.057-6.266 12.436-6.646 12.911-7.215 13.101-7.879 13.481-8.639 13.575-9.493 13.386-10.633 13.291-11.772 13.101-13.006 12.343-14.525 11.58-16.044 11.11-17.752M702.604 153.439l-2.563-2.563-1.994-2.753-1.519-2.848-1.044-2.848-.475-3.038.095-3.038.76-3.038 1.329-3.038 2.183-3.038 2.753-3.038 3.323-3.038 3.608-2.943 3.892-2.848 3.702-2.943 7.215-5.886 3.418-3.038 3.323-2.942 3.133-3.038 6.075-6.266 2.848-3.228 2.753-3.227 2.659-3.323 2.563-3.323 2.468-3.513 2.279-3.607 2.088-3.608 1.994-3.797 1.898-3.892 1.709-4.082 1.614-4.177 1.329-4.272 1.234-4.462 2.469-9.304 2.088-9.873 1.139-5.127 1.424-5.22L775.893 8l2.089-5.222 2.658-5.221 3.228-5.127 3.797-5.126 4.557-5.126 5.126-4.937 5.791-5.032 6.456-4.936 7.215-4.937 7.879-4.936 8.64-5.032 9.398-4.936 10.063-5.127 22.025-10.917 11.867-5.791 12.341-6.266 12.721-6.645 13.101-7.31 13.291-7.975 13.481-8.829 13.67-9.683 13.386-10.727 13.101-11.962 12.906-13.196 12.25-14.62 11.49-16.139 11.11-17.752M702.604 148.597l-2.088-2.658-1.614-2.848-1.14-2.848-.664-2.943v-3.038l.475-3.038 1.139-3.133 1.804-3.037 2.468-3.038 2.943-3.038 3.417-2.943 3.608-2.943 3.512-2.943 3.513-3.038 3.418-2.943 3.417-3.038 3.323-3.038 3.133-3.038 3.038-3.133 2.943-3.132 2.848-3.228 2.753-3.228 2.658-3.418 2.468-3.417 2.374-3.513 2.278-3.607 2.089-3.703 1.993-3.797 1.899-3.892 1.709-4.082 1.614-4.178 1.519-4.272 1.424-4.462 1.424-4.556 1.424-4.652 1.424-4.747 1.424-4.936 1.614-5.032 1.803-5.031 2.089-5.032L780.735.88l3.228-5.032 3.797-4.936 4.462-4.937 5.032-4.937 5.696-4.841 6.36-4.842 6.93-4.842 7.69-4.841 8.354-4.842 9.019-4.841 9.873-4.937 21.455-10.348 11.677-5.506 12.057-5.886 12.626-6.266 13.006-6.74 13.196-7.405 13.386-8.164 13.575-8.829 13.576-9.873 13.196-10.918 13.004-12.151 12.72-13.291 12.06-14.81 11.49-16.234 11.1-17.847M705.167 146.319l-2.088-2.658-1.709-2.753-1.329-2.848-.76-2.943-.189-2.943.284-3.038.76-3.133 1.519-3.038 2.088-3.133 2.564-3.038 3.037-2.943 3.418-3.038 3.323-3.037 3.227-2.943 3.418-3.038 6.456-6.076 3.227-3.133 5.886-6.266 2.848-3.322 2.753-3.228 5.127-6.835 2.373-3.608 2.184-3.607 2.088-3.798 1.994-3.797 3.607-7.974 1.709-4.178 1.709-4.367 1.614-4.367 1.709-4.461 1.804-4.557 3.607-9.494 2.184-4.841 2.373-4.937 2.658-4.937 3.228-4.841 3.797-4.842 4.367-4.841 5.127-4.747 5.601-4.652 6.265-4.747 6.836-4.651 7.404-4.747 8.07-4.747 8.829-4.747 9.493-4.746 10.158-4.937 10.728-5.031 11.392-5.317 11.867-5.506 12.341-5.886 12.816-6.36 13.196-6.836 13.291-7.5 13.386-8.259 13.48-9.018 13.481-10.064 13.006-11.012 12.811-12.341 12.54-13.481 11.96-14.905 11.39-16.328 11.2-17.848M705.737 141.477l-1.804-2.658-1.424-2.848-.949-2.943-.475-2.943.095-3.038.57-3.133 1.139-3.038 1.614-3.132 2.183-3.038 2.753-3.133 6.076-6.076 9.399-9.114 6.265-6.265 2.943-3.133 2.943-3.228 5.506-6.645 5.127-6.835 2.278-3.608 2.184-3.702 2.088-3.703 2.089-3.892 1.899-3.987 1.993-4.083 1.804-4.082 1.899-4.272 1.898-4.367 2.089-4.367 6.74-13.765 2.658-4.652 2.943-4.747 3.323-4.746 3.797-4.747 4.462-4.652 4.937-4.557 5.696-4.652 6.171-4.556 6.74-4.557 7.405-4.557 7.879-4.557 8.544-4.652 9.114-4.651 9.873-4.747 10.443-4.842 11.107-5.031 11.677-5.317 12.057-5.6 12.531-5.887 13.006-6.455 13.291-6.93 13.291-7.595 13.291-8.449 13.385-9.209 13.386-10.158 12.814-11.202 12.53-12.436 12.44-13.671 11.77-15 11.39-16.423 11.3-17.848m-361.319 347.27l-1.519-2.848-1.044-2.849-.664-2.943-.19-3.037.284-3.133.76-3.038 1.329-3.133 1.709-3.133 2.373-3.038 2.658-3.132 2.753-3.038 2.848-3.133 2.943-3.133 2.943-3.038 5.981-6.36 2.848-3.228 2.943-3.228 5.506-6.645 2.564-3.513 2.468-3.513 2.373-3.607 4.367-7.405 2.089-3.892 4.177-7.975 2.089-4.177 2.183-4.177 2.278-4.272 2.469-4.272 2.658-4.367 2.658-4.462 2.943-4.557 3.133-4.557 3.512-4.556L786.906.69l4.462-4.557 5.031-4.462L802-12.791l6.171-4.367 6.74-4.462 7.215-4.367 7.88-4.462 8.354-4.462 8.829-4.556 9.588-4.652 10.158-4.747 10.823-4.842 11.297-5.031 11.867-5.221 12.246-5.696 12.816-5.981 13.006-6.456 13.291-7.025 13.291-7.785 13.196-8.544 13.291-9.398 13.101-10.348 12.72-11.392 12.34-12.531 12.15-13.766 11.68-15.095 11.49-16.423 11.48-17.943m-367.486 346.89l-1.614-2.848-1.234-2.848-.854-2.943-.38-3.038v-3.038l.475-3.133.854-3.133 1.329-3.132 1.899-3.133 2.278-3.038 2.469-3.228 2.468-3.133 5.506-6.265 2.753-3.228 2.848-3.228 2.753-3.228 5.507-6.645 2.658-3.418 2.563-3.512 2.468-3.513 2.469-3.607 2.278-3.703 2.278-3.797 4.557-7.785 2.468-3.987 2.374-4.082m-49.841 91.706l-1.329-2.753-.949-2.943-.57-3.038-.189-3.037.094-3.133.475-3.133.855-3.133 1.518-3.133 1.899-3.228 2.089-3.132 2.183-3.228 2.373-3.228 7.69-9.683 2.563-3.323 2.659-3.323 2.658-3.417 2.563-3.418 2.563-3.512 5.127-7.215 2.468-3.703 2.563-3.702 2.468-3.893 2.564-3.892 2.753-3.892 2.753-3.987 2.848-4.083 3.133-4.082 3.322-4.082 3.703-4.082 3.702-4.177 3.893-4.177 4.367-4.272 4.651-4.272 5.127-4.177 5.601-4.178 6.076-4.177 6.645-4.177 7.12-4.177 7.595-4.177 8.164-4.272 8.639-4.177 9.114-4.367 9.588-4.462 10.063-4.557 10.728-4.652 11.202-4.841 11.772-5.032 12.152-5.411 12.436-5.791 12.911-6.17 13.101-6.646 13.196-7.31 13.101-8.07 12.911-8.828 12.815-9.684 12.72-10.632 12.15-11.677 12.06-12.816 11.87-13.956 11.77-15.189 11.68-16.519 11.96-17.847M714.091 127.617l-1.424-2.848-1.044-2.848-.76-3.038-.474-3.038-.095-3.038.095-3.133.569-3.228 1.045-3.132 1.519-3.228 1.708-3.228 1.899-3.228 2.089-3.227 2.183-3.323 4.747-6.645 2.468-3.323 2.468-3.418 5.317-6.835 2.563-3.513 2.658-3.512 2.753-3.608 5.506-7.405 2.753-3.797 2.943-3.797 6.076-7.785 3.323-3.987 3.512-3.987 3.798-3.988 8.259-8.07 4.367-4.081 4.747-4.082 5.221-4.083 5.506-4.082L806.462-7l6.646-4.082 7.12-3.987 7.499-4.082 8.07-4.083 8.449-4.177 9.019-4.177 9.398-4.272 9.873-4.367 10.348-4.557 22.31-9.493 11.867-5.127 12.151-5.506 12.531-5.79 12.817-6.266 13.1-6.836 13.006-7.404 12.911-8.26 12.723-8.924 12.72-9.873 12.44-10.822 11.96-11.772 11.96-12.911 11.87-13.956 11.77-15.284 11.87-16.424 12.43-17.847M715.99 122.775l-1.139-2.848-.855-2.943-.569-3.038-.38-3.038-.095-3.132.285-3.228.854-3.133 1.234-3.228 1.424-3.228 1.614-3.322 1.899-3.228 2.088-3.323 2.184-3.323 2.373-3.322 2.279-3.418 2.468-3.322 2.563-3.513 2.658-3.418 2.659-3.512 2.658-3.608 5.696-7.215 5.886-7.405 3.132-3.797 3.228-3.797 3.418-3.893 3.607-3.892 3.798-3.892 4.177-3.893 4.462-3.892 4.557-3.892 4.841-3.987 5.222-3.988L799.817.12l6.076-3.987 6.55-3.987 7.025-3.893 7.5-3.892 7.974-3.987 8.45-3.987 8.828-4.083 9.399-4.082 9.683-4.177 10.063-4.462 10.538-4.462 11.107-4.746 11.582-4.842 11.962-5.221 12.246-5.507 12.437-5.98 12.816-6.361 12.911-6.93 12.911-7.595 12.725-8.354 12.43-9.114 12.34-9.968 12.25-10.917 11.87-11.962 11.77-13.006 11.77-14.05 11.87-15.19 12.15-16.518 12.82-17.848M719.407 120.781l-1.139-2.848-.854-2.848-.665-3.037-.569-3.038-.19-3.133v-3.133l.569-3.228.95-3.228 1.234-3.227 1.519-3.228 1.709-3.323 1.898-3.322 2.089-3.323 2.183-3.323 2.279-3.418 2.373-3.417 2.563-3.418 2.564-3.512 2.658-3.513 2.753-3.512 5.886-7.215 6.265-7.405 3.323-3.703 3.513-3.797 3.607-3.797 3.893-3.798 4.177-3.797 4.556-3.798 4.842-3.797 5.032-3.797 5.221-3.893 5.696-3.892 5.981-3.892 6.455-3.798 7.026-3.892 7.404-3.797 7.88-3.798 8.354-3.892 8.734-3.892 9.209-3.988 9.588-4.082 9.968-4.177 10.348-4.367 21.93-9.303 11.582-4.937 11.962-5.221 12.246-5.601 12.436-6.076 12.627-6.55 12.816-7.026 12.721-7.784 12.441-8.449 12.15-9.304 12.15-10.158 11.96-11.012 11.77-12.057 11.68-13.006 11.87-14.05 11.96-15.285 12.53-16.518 13.29-17.753M721.971 116.035l-.95-2.943-.759-2.943-.57-3.038-.38-3.038-.094-3.133.379-3.227.76-3.228.949-3.228 1.329-3.228 1.614-3.322 1.709-3.323 1.994-3.323 2.088-3.418 2.089-3.322 2.373-3.418 2.468-3.512 2.564-3.418 2.753-3.513 2.753-3.607 3.038-3.513 3.132-3.607 3.228-3.608 3.323-3.702 3.512-3.703 3.798-3.702 3.892-3.702 4.177-3.703 4.557-3.702 4.842-3.798 5.221-3.607 5.411-3.797 5.696-3.703 6.076-3.797 6.361-3.798 6.835-3.702 7.31-3.703 7.785-3.797 8.259-3.797 8.734-3.703 9.019-3.892 9.398-3.987 9.873-3.987 10.253-4.178 10.443-4.367 22.12-9.303 11.582-5.032 11.961-5.316 12.152-5.791 12.246-6.17 12.532-6.646 12.531-7.215 12.533-7.88 12.15-8.639 11.96-9.398 11.96-10.253 11.78-11.107 11.58-12.152 11.67-13.006 11.97-14.145 12.24-15.284 12.91-16.424 13.77-17.753M725.768 114.041l-.949-2.753-.76-2.943-.569-3.038-.475-3.038-.19-3.133.19-3.132.57-3.228.854-3.228 1.139-3.323 1.424-3.227 1.614-3.323 1.804-3.323 1.993-3.417 2.089-3.418 2.278-3.418 2.469-3.417 2.563-3.513 2.753-3.417 2.848-3.608 3.133-3.512 3.228-3.513 3.417-3.608 3.513-3.607m-31.898 71.485l-.759-2.848-.57-3.038-.475-2.942-.285-3.133.095-3.133.38-3.228.76-3.228 1.044-3.227 1.234-3.323 1.614-3.228 1.709-3.323 1.898-3.417 1.994-3.418 2.278-3.418 2.469-3.417 2.563-3.418 2.753-3.512 2.943-3.513 3.228-3.513 3.322-3.512 3.513-3.513 3.702-3.607 3.988-3.608 4.177-3.512 4.367-3.608 4.746-3.607 5.127-3.608 5.506-3.512 5.886-3.513L804.089 8l6.455-3.608L817.285.88l7.12-3.608 7.5-3.607 7.879-3.608 8.354-3.607 8.829-3.608 9.209-3.702 9.493-3.798 9.778-3.892 10.253-3.987 10.443-4.272 10.633-4.367 10.917-4.652 11.297-4.937 11.392-5.126 11.867-5.506 11.867-5.981 11.962-6.456 12.056-6.835 12.156-7.5 11.86-8.164 11.77-8.924 11.49-9.683 11.58-10.443 11.49-11.297 11.58-12.152 11.77-13.196 12.25-14.05 13.01-15.189 13.76-16.424 14.72-17.753M732.888 107.491l-.664-2.753-.57-2.943-.475-3.038-.284-3.038.094-3.133.285-3.133.57-3.228.949-3.227 1.234-3.228 1.519-3.323 1.614-3.323 1.804-3.322 1.994-3.418 2.278-3.322 2.468-3.418 2.563-3.513 2.754-3.417 3.037-3.513 6.741-6.93 3.797-3.513 3.892-3.512 4.083-3.513 4.462-3.512 4.556-3.513 5.032-3.512 5.411-3.513 5.696-3.513 6.171-3.417 6.36-3.513L817 3.728 824.025.31l7.405-3.513 7.69-3.607 8.164-3.513 8.544-3.512 9.019-3.608 9.398-3.702 9.589-3.797 9.968-3.893 10.347-3.987 10.443-4.272 10.728-4.462 10.822-4.652 11.203-5.031 11.392-5.222 11.677-5.696 11.676-5.98 11.772-6.551 11.868-7.12 11.77-7.595 11.68-8.26 11.48-9.018 11.3-9.778 11.39-10.538 11.49-11.297 11.68-12.246 11.96-13.101 12.63-14.146 13.29-15.189 14.24-16.329 15.09-17.752M736.496 102.934l-.57-2.943-.38-2.943-.19-2.943v-3.133l.285-3.133.475-3.132.949-3.228 1.139-3.228 1.424-3.228 1.614-3.322 1.804-3.323 1.899-3.418 2.278-3.322 2.468-3.418 2.659-3.418 2.848-3.417 3.132-3.418 3.418-3.418 3.608-3.512 3.892-3.418 3.987-3.512 4.367-3.418 4.557-3.513 4.842-3.417 5.221-3.513 5.601-3.417 6.076-3.323 6.36-3.418 6.646-3.417 6.93-3.418 14.81-6.93 7.974-3.418 8.26-3.513 8.828-3.512 9.114-3.607 9.589-3.703 9.683-3.702 10.063-3.893 10.348-4.082 10.537-4.272 10.633-4.557 10.728-4.746 11.202-5.032 11.202-5.411 11.392-5.791 11.487-6.17 11.485-6.646 11.68-7.215 11.49-7.69 11.48-8.45 11.21-9.113 11.2-9.873 11.29-10.538 11.49-11.392 11.77-12.246 12.25-13.101 12.91-14.05 13.77-15.19 14.62-16.329 15.57-17.657M740.768 101.13l-.38-2.848-.285-2.848-.19-3.038.095-3.038.285-3.038.475-3.132.854-3.228 1.139-3.133 1.424-3.323 1.519-3.228 1.804-3.322 1.994-3.323 2.278-3.323 2.563-3.322 2.658-3.418 2.848-3.417 3.228-3.418 3.608-3.323 3.702-3.417 3.987-3.418 4.272-3.418 4.462-3.417 4.747-3.418 5.126-3.418 5.412-3.322 5.791-3.418 6.265-3.323L817 9.52l6.835-3.323 7.12-3.418 7.5-3.322 7.69-3.418 8.164-3.513 8.449-3.417 8.924-3.513 9.209-3.607 9.683-3.608 9.778-3.797 10.063-3.987 10.348-4.083 10.443-4.366 10.632-4.557 10.633-4.842 10.917-5.127 11.108-5.506 11.202-5.886 11.202-6.265 11.3-6.835 11.29-7.31 11.3-7.88 11.2-8.544 11.11-9.114 11.01-9.968 11.3-10.632 11.58-11.393 11.87-12.151 12.63-13.101 13.29-14.05 14.14-15.19 15.1-16.329 16.04-17.657M745.04 99.326l-.19-2.753-.19-2.848v-2.943l.095-2.943.38-3.038.474-3.132.95-3.133 1.139-3.133 1.329-3.228 1.614-3.228 1.804-3.322 1.993-3.228 2.374-3.323 2.563-3.322 2.658-3.323 3.038-3.418 3.228-3.323 3.702-3.322 3.797-3.418 4.177-3.322 4.367-3.323 4.652-3.323 5.032-3.418 5.221-3.322 5.601-3.323 6.076-3.323 6.361-3.322 6.74-3.228 7.025-3.323 7.31-3.322 7.69-3.323 7.784-3.418 8.26-3.417 8.544-3.418 9.018-3.513 9.304-3.607 9.683-3.608 9.779-3.892 10.063-3.987 10.252-4.082 10.348-4.462 10.538-4.652 10.443-4.937 10.822-5.22 10.823-5.697 11.012-5.886 10.917-6.456 11.01-6.93 11.11-7.404 11.01-7.975 11.01-8.639 10.92-9.209 11.01-9.968 11.4-10.632 11.67-11.487 12.16-12.152 12.91-13.101 13.67-13.955 14.52-15.095 15.48-16.328 16.51-17.658M749.312 94.865l.095-2.754.095-2.943.189-2.943.475-2.942.57-3.038.949-3.133 1.139-3.133 1.424-3.133 1.709-3.228 1.804-3.227 1.993-3.228 2.374-3.228 2.658-3.323 2.753-3.322 3.133-3.323 3.323-3.228 3.797-3.322 3.987-3.323 4.272-3.323 4.462-3.323 4.842-3.227 5.126-3.323 5.412-3.323 5.791-3.227 6.17-3.228 6.646-3.323 6.835-3.228 7.12-3.227 7.5-3.323 7.784-3.228 7.975-3.418 8.259-3.417 8.639-3.418 9.019-3.512 9.398-3.608 9.589-3.702 9.778-3.893 9.968-3.987 10.158-4.272 10.158-4.462 10.348-4.746 10.348-5.032 10.537-5.411 10.633-5.696 10.728-6.076L1010-72.41l10.73-7.026 10.82-7.5 10.82-8.069 10.83-8.734 10.91-9.303 11.02-9.969 11.48-10.632 11.87-11.392 12.53-12.152 27.25-27.056 14.9-15.095 15.95-16.233 16.9-17.658M753.869 93.156l.189-2.753.285-2.754.38-2.942.57-2.944.664-2.942 1.044-3.038 1.235-3.133 1.518-3.133 1.709-3.133 1.899-3.133 2.089-3.227 2.468-3.228 2.658-3.228 2.848-3.228 3.133-3.322 3.512-3.228 3.893-3.228 4.082-3.323 4.367-3.227 4.652-3.228 5.031-3.228 5.222-3.228 5.601-3.322 5.981-3.133 6.36-3.228 6.646-3.228 7.025-3.227 7.215-3.228 7.594-3.228 7.88-3.323 7.974-3.322 8.45-3.418 8.639-3.418 9.018-3.512 9.304-3.608 9.683-3.797 9.588-3.892 9.874-4.082 9.968-4.367 10.063-4.557 10.158-4.842 10.063-5.127 10.348-5.41 10.252-5.887 10.539-6.17 10.44-6.74 10.44-7.12 10.64-7.596 10.63-8.164 10.73-8.734 10.82-9.398 11.11-9.968 11.58-10.633 12.25-11.392 12.81-12.152 13.58-13.006 14.33-13.955 15.29-15 16.33-16.328 17.46-17.563M758.33 91.447l.475-2.658.475-2.753.569-2.848.665-2.849.854-2.942 1.14-3.038 1.329-3.038 1.614-3.038 1.708-3.133 1.994-3.133 2.183-3.133 2.564-3.132 2.753-3.228 2.943-3.228 3.322-3.133 3.513-3.227 3.987-3.228 4.177-3.228 4.557-3.133 4.842-3.228 5.031-3.227 5.507-3.133 5.696-3.228 6.075-3.133 6.456-3.228 6.74-3.133 7.12-3.132 7.31-3.228 7.69-3.228 7.879-3.322 8.07-3.323 8.354-3.418 8.734-3.417 9.019-3.608 9.208-3.607 9.494-3.798 9.493-3.987 9.684-4.177 9.778-4.462 9.778-4.652 9.968-4.936 9.873-5.222 10.063-5.6 10.066-5.887 10.16-6.36 10.15-6.74 10.35-7.216 10.35-7.69 10.54-8.259 10.63-8.829 10.92-9.303 11.29-10.063 24.31-21.93 13.1-12.152 13.95-13.006 14.72-13.955 15.66-14.999 16.71-16.234 17.85-17.563M763.362 87.174l.665-2.752.759-2.753.854-2.848 1.045-2.848 1.329-2.943 1.424-3.038 1.709-2.943 1.898-3.038 2.089-3.133 2.278-3.038 2.658-3.133 2.848-3.133 3.133-3.132 3.418-3.228 3.607-3.133 4.083-3.133 4.272-3.133 4.651-3.132 4.937-3.133 5.221-3.228 5.601-3.133 5.791-3.133 6.266-3.133 6.456-3.132 6.835-3.133 7.12-3.133 7.405-3.228 7.69-3.228 7.974-3.227 7.974-3.323 8.355-3.418 8.639-3.512 8.924-3.608 9.113-3.702 9.304-3.892 9.303-4.083 9.494-4.272 9.588-4.462 9.493-4.746 9.684-5.032 9.683-5.411 9.778-5.601 9.78-6.076 9.97-6.455 9.96-6.836 10.16-7.31 10.26-7.69 10.44-8.353 10.63-8.734 11.01-9.399 11.59-9.968 12.05-10.633 12.72-11.297 13.48-12.151 14.24-12.911 15.1-13.956 16.04-14.999 17.09-16.234 18.32-17.563M767.634 85.561l.949-2.658 1.045-2.753 1.139-2.753 1.139-2.848 1.519-2.849 1.614-2.942 1.899-2.943 1.993-3.038 2.279-2.943 2.468-3.038 2.753-3.133 6.171-6.17 3.607-3.039 3.703-3.132 4.177-3.133 4.462-3.038 4.746-3.133 5.032-3.133 5.316-3.038 5.696-3.133 5.886-3.037 6.266-3.133 6.645-3.133 6.836-3.133 7.12-3.133 7.404-3.133 7.69-3.227 7.88-3.323 7.974-3.323 8.259-3.512 8.545-3.513 8.733-3.702 8.924-3.703 9.114-3.987 9.114-4.082 9.303-4.367 9.209-4.652 9.398-4.842 9.399-5.126 9.398-5.411 9.492-5.791 9.59-6.17 9.68-6.457 9.88-6.93 9.96-7.404 10.26-7.785 10.44-8.259 10.73-8.829 11.2-9.399 11.77-9.968 12.34-10.538 13.01-11.297 13.76-12.056 30-26.867 16.43-14.999 17.56-16.139 18.8-17.563M771.811 83.852l1.234-2.563 1.234-2.658 1.33-2.753 1.518-2.754 1.614-2.847 1.899-2.849 1.994-2.848 2.278-2.942 2.373-2.944 2.564-3.037 2.943-2.943 3.132-3.038 3.323-3.038 3.703-3.038 3.892-3.038 4.272-3.038 4.557-3.038 4.841-3.132 5.127-3.038 5.411-3.038 5.791-3.038 5.981-3.038 6.266-3.133 13.48-6.17 7.12-3.133 7.405-3.133L884.688.31l7.879-3.228 7.88-3.417 8.164-3.513 8.355-3.607 8.639-3.703 8.734-3.797 8.828-4.082 8.924-4.178 9.019-4.461 9.019-4.652 9.018-5.032 9.209-5.221 9.114-5.506 9.3-5.886 9.4-6.171 9.59-6.645 9.68-6.93 9.88-7.405 10.25-7.88 10.44-8.259 22.41-18.133 24.58-20.505 13.3-11.298 14.05-12.056 14.81-12.911 15.85-13.861 16.8-14.999 17.95-16.139 19.17-17.563M777.317 79.675l1.519-2.563 1.519-2.753 1.709-2.658 1.899-2.754 2.088-2.848 2.184-2.753 2.468-2.943 2.563-2.848 2.753-2.943 3.038-2.943 3.323-2.943 3.513-2.943 3.797-3.037 3.987-2.943 4.462-3.038 4.557-3.038 5.031-2.943 5.222-3.038 5.506-3.038 5.791-2.943 6.076-3.038 6.36-3.038 6.646-3.133 6.835-3.037 7.025-3.228 7.31-3.133 7.595-3.228 7.689-3.322 7.785-3.513 8.07-3.513 8.164-3.607 8.354-3.797 8.544-3.988 8.639-4.082 8.544-4.272 8.734-4.557 8.734-4.747 8.829-5.126 8.924-5.316 8.927-5.601 9.11-5.886 9.3-6.36 9.4-6.646 9.69-6.93 20.12-15.285 21.74-17.088 11.58-9.398 12.25-9.874 12.91-10.537 13.58-11.297 14.33-11.962 15.19-12.911 16.14-13.861 17.18-14.999 18.33-16.139 19.65-17.468M781.21 78.061l1.898-2.563 1.804-2.563 1.994-2.659 2.088-2.753 2.279-2.753 2.468-2.753 2.563-2.753 2.753-2.848L802 53.568l3.228-2.943 3.513-2.848 3.607-2.943 3.987-2.943 4.177-2.943 4.462-2.943 4.747-2.943 5.126-2.943 5.317-2.943 5.601-3.037 5.791-2.944 6.076-3.037 6.36-3.038 6.551-3.038 6.835-3.133 7.025-3.133 7.215-3.228 7.405-3.227 7.595-3.418 7.594-3.513 7.88-3.512 7.974-3.797 8.07-3.798 8.259-3.987 8.354-4.272 8.355-4.367 8.449-4.652 8.544-4.842 8.544-5.126 8.734-5.411 8.735-5.696 9.02-5.981 9.11-6.36 9.4-6.646 9.59-7.025 9.97-7.405 10.44-7.88 10.73-8.259 11.39-8.829 11.87-9.303 12.43-9.874 13.1-10.537 13.86-11.202 30.19-24.873 16.43-13.861 17.56-14.904 18.8-16.139 20.12-17.468M784.912 76.542l2.089-2.563 2.183-2.563 2.184-2.658 2.373-2.564 2.563-2.753 5.411-5.411 3.038-2.753 3.133-2.848 3.418-2.848 3.607-2.848 3.798-2.848 4.082-2.848 4.272-2.848 4.652-2.943 4.841-2.943 5.127-2.848 5.411-2.943 5.601-2.943 11.962-5.981 6.265-3.038 13.291-6.17 6.836-3.228 7.12-3.228 14.619-6.74 7.5-3.513 7.595-3.702 7.69-3.703 7.879-3.987 7.975-4.082 8.069-4.272 8.164-4.462 8.165-4.747 8.354-4.937 8.354-5.22 8.547-5.412 17.56-11.772 9.11-6.36 9.4-6.741 9.69-7.025 10.15-7.405 10.54-7.879 11.01-8.26 11.49-8.734 12.15-9.303 12.72-9.873 13.39-10.538 14.05-11.202 14.9-11.962 15.86-12.816 16.8-13.861 17.94-14.904 19.18-16.139L1247.53-245M760.704 37.904l3.702-3.608 3.988-3.702 4.177-3.608 4.462-3.702 4.841-3.607 5.222-3.608 5.601-3.607 5.696-3.703 6.076-3.607 6.455-3.703 6.74-3.607 7.215-3.703 7.595-3.702 8.164-3.608 8.45-3.702 9.018-3.703 9.304-3.892 9.683-3.892 10.063-3.987 10.253-4.178 10.633-4.367 10.822-4.651 11.297-4.842 11.582-5.126 11.867-5.412 12.057-5.79 12.151-6.266 12.342-6.835 12.25-7.31 12.24-8.07 11.96-8.734 11.78-9.588 11.67-10.348 11.68-11.202 11.58-12.152 11.68-13.101 12.06-14.145 12.62-15.189 13.29-16.424 14.24-17.753M760.704 37.904l2.468-4.082 2.658-4.177 2.943-4.177 3.133-4.273 3.228-4.366 3.417-4.367 3.798-4.367 4.082-4.367 4.462-4.367 5.031-4.367 5.696-4.367 6.076-4.272 6.741-4.272 7.12-4.272 7.689-4.367 8.26-4.367 8.734-4.367 9.208-4.462 9.873-4.652 10.443-4.652 11.012-4.841 11.582-5.032 12.057-5.316 12.342-5.696 12.816-6.076 13.101-6.645 13.29-7.12 13.196-7.88 13.101-8.734 13.099-9.493 12.91-10.538 12.44-11.487 12.15-12.721 12.06-13.861 11.67-15.094 11.59-16.519 11.67-17.847" stroke="#fff" stroke-opacity=".1" stroke-width="1.3" stroke-linecap="round" stroke-linejoin="round"/></svg>